<svg width="165" height="83" viewBox="0 0 165 83" fill="none" xmlns="http://www.w3.org/2000/svg">
<g clip-path="url(#clip0_2297_874)">
<path d="M23.1506 27.8624V59.2476H139.351L142.816 55.7784H26.5948L26.6077 55.7649V24.3351L23.1506 27.8624Z" fill="#E31D19"/>
<path d="M33.5317 24.3351H42.394C43.4982 24.3351 44.5247 24.4644 45.4734 24.7191C46.4214 24.9757 47.2392 25.3538 47.9229 25.8541C48.6089 26.3566 49.1648 27.0152 49.5442 27.7752C49.9395 28.5554 50.1391 29.4687 50.1391 30.5165C50.1391 31.9379 49.7302 33.0962 48.9143 33.9914C48.0978 34.8886 47.0416 35.546 45.7442 35.9655V36.0353C46.4966 36.0775 47.2322 36.2736 47.9054 36.6112C48.5655 36.9407 49.1578 37.3906 49.6518 37.9376C50.1521 38.4982 50.5485 39.143 50.8227 39.8419C51.1118 40.5639 51.255 41.3441 51.255 42.1818C51.255 43.3 51.021 44.2838 50.5532 45.1332C50.0821 45.9855 49.4231 46.7199 48.626 47.2811C47.8082 47.8629 46.8601 48.3063 45.7792 48.6088C44.699 48.9113 43.5332 49.0619 42.2858 49.0619H33.5311V24.3351H33.5317ZM36.9902 34.6036H41.7091C42.3571 34.6036 42.9694 34.5389 43.5462 34.411C44.1229 34.283 44.6271 34.0684 45.0593 33.7646C45.4879 33.4666 45.8396 33.0717 46.0857 32.6121C46.3385 32.1473 46.4642 31.5766 46.4642 30.9017C46.4642 29.9231 46.1402 29.0738 45.4922 28.3511C44.8429 27.6304 43.8222 27.2684 42.429 27.2684H36.9902V34.6036ZM36.9902 46.1286H42.0693C42.5975 46.1286 43.18 46.0769 43.817 45.9709C44.4439 45.8694 45.0475 45.6566 45.5991 45.3426C46.1555 45.0253 46.6355 44.5902 47.0053 44.0679C47.3876 43.5334 47.5814 42.823 47.5814 41.9374C47.5814 40.4702 47.0889 39.3713 46.1039 38.637C45.1189 37.9034 43.7859 37.5362 42.105 37.5362H36.9902V46.128V46.1286ZM68.5699 49.0625H65.3273V46.5126H65.256C64.8471 47.3981 64.1388 48.1143 63.1305 48.6611C62.1215 49.208 60.9571 49.4808 59.6357 49.4808C58.8285 49.4862 58.0256 49.3627 57.2575 49.1149C56.5297 48.8807 55.8606 48.4937 55.2953 47.9798C54.7303 47.4679 54.2799 46.8099 53.9436 46.0071C53.6066 45.2036 53.4401 44.2554 53.4401 43.1604V32.508H56.6821V42.2865C56.6821 43.055 56.7903 43.7131 57.0061 44.2599C57.2225 44.8074 57.5103 45.2495 57.8712 45.5876C58.2251 45.9214 58.6496 46.1716 59.1134 46.3199C59.5845 46.4715 60.0765 46.5483 60.5715 46.5475C61.2454 46.5475 61.8701 46.444 62.4455 46.234C63.0213 46.0251 63.5397 45.6838 63.9587 45.2379C64.3909 44.7841 64.7272 44.2076 64.9676 43.5101C65.2067 42.8107 65.3273 41.9846 65.3273 41.0293V32.5067H68.5693V49.0619L68.5699 49.0625ZM71.1406 32.5073H74.3826V35.0573H74.4539C74.6734 34.6107 74.9657 34.2035 75.319 33.8525C75.6784 33.4918 76.0844 33.1805 76.5263 32.9269C76.9854 32.6646 77.4751 32.4595 77.9843 32.316C78.4996 32.1665 79.0334 32.0901 79.57 32.0891C80.0981 32.0891 80.5783 32.1589 81.0105 32.2986L80.866 35.6856C80.6047 35.6163 80.3405 35.5581 80.0742 35.5111C79.8125 35.465 79.5473 35.4416 79.2816 35.4413C77.6966 35.4413 76.4835 35.8724 75.643 36.7334C74.8025 37.5957 74.3826 38.9343 74.3826 40.7507V49.0625H71.1406V32.5067V32.5073ZM86.415 35.2312H82.7407V32.5073H86.415V28.8055C86.415 26.5936 86.8517 24.9466 87.7291 23.8633C88.6066 22.7806 90.1119 22.2389 92.251 22.2389C92.6107 22.2389 92.9884 22.2518 93.385 22.2744C93.7803 22.2977 94.208 22.3675 94.6642 22.4839L94.3046 25.2788C94.0128 25.1674 93.7106 25.0852 93.4025 25.0332C93.0932 24.9851 92.7805 24.9618 92.4674 24.9634C91.8667 24.9634 91.3866 25.0507 91.0269 25.2252C90.6782 25.3896 90.384 25.6502 90.1793 25.9763C89.9752 26.3027 89.8417 26.6925 89.7827 27.1462C89.7192 27.662 89.6889 28.1812 89.692 28.7008V32.508H93.5477V35.2312H89.6563V49.0625H86.415V35.2312ZM94.3272 40.7849C94.3272 39.5743 94.5605 38.445 95.029 37.3979C95.4885 36.3633 96.1427 35.4264 96.9562 34.6378C97.7727 33.8467 98.7337 33.2235 99.838 32.7698C100.942 32.3154 102.132 32.0885 103.405 32.0885C104.677 32.0885 105.867 32.3154 106.971 32.7698C108.076 33.2235 109.037 33.8467 109.853 34.6378C110.667 35.4261 111.321 36.3632 111.78 37.3979C112.249 38.445 112.483 39.5743 112.483 40.7849C112.483 41.9963 112.249 43.1313 111.78 44.1894C111.327 45.2275 110.672 46.1656 109.853 46.9495C109.037 47.7284 108.076 48.3463 106.971 48.8008C105.866 49.2545 104.677 49.4814 103.405 49.4814C102.132 49.4814 100.942 49.2552 99.838 48.8008C98.7337 48.3463 97.7727 47.7278 96.9562 46.9502C96.1375 46.166 95.4825 45.228 95.029 44.1901C94.5605 43.1313 94.3272 41.9963 94.3272 40.7849ZM97.7857 40.7849C97.7857 41.624 97.9173 42.397 98.181 43.1081C98.4447 43.8184 98.8173 44.4228 99.2988 44.9237C99.7784 45.4247 100.367 45.8203 101.063 46.1112C101.76 46.402 102.54 46.5481 103.405 46.5481C104.269 46.5481 105.051 46.4027 105.746 46.1112C106.443 45.8203 107.031 45.4247 107.512 44.9237C107.992 44.4228 108.365 43.8184 108.628 43.1081C108.892 42.397 109.024 41.624 109.024 40.7849C109.024 39.9466 108.892 39.1729 108.629 38.4618C108.365 37.7528 107.992 37.1471 107.512 36.6455C107.031 36.1458 106.443 35.7509 105.746 35.4581C105.05 35.1672 104.269 35.0224 103.405 35.0224C102.54 35.0224 101.76 35.1679 101.063 35.4581C100.367 35.7509 99.7784 36.1458 99.2988 36.6461C98.8173 37.1471 98.4447 37.7528 98.1816 38.4625C97.9173 39.1735 97.7857 39.9466 97.7857 40.7849ZM114.622 32.5073H117.863V35.0573H117.934C118.154 34.6108 118.447 34.2037 118.8 33.8525C119.159 33.4916 119.565 33.1803 120.007 32.9269C120.467 32.6646 120.956 32.4595 121.465 32.316C121.98 32.1663 122.514 32.0899 123.05 32.0891C123.578 32.0891 124.059 32.1589 124.492 32.2986L124.347 35.6856C124.086 35.6163 123.822 35.5581 123.555 35.5111C123.294 35.465 123.029 35.4416 122.763 35.4413C121.178 35.4413 119.965 35.8724 119.124 36.7334C118.282 37.5957 117.863 38.9343 117.863 40.7507V49.0625H114.622V32.5067V32.5073ZM142.81 49.0625H139.568V46.6871H139.497C138.871 47.5726 138.011 48.2591 136.921 48.7484C135.827 49.2371 134.704 49.4808 133.552 49.4808C132.23 49.4808 131.035 49.261 129.967 48.8176C128.899 48.3761 127.986 47.7575 127.23 46.967C126.47 46.1712 125.876 45.2331 125.482 44.2069C125.074 43.1598 124.869 42.0195 124.869 40.7849C124.869 39.551 125.074 38.405 125.482 37.3442C125.89 36.2855 126.473 35.3663 127.23 34.5861C127.986 33.8059 128.899 33.1951 129.967 32.7523C131.035 32.3102 132.231 32.0891 133.552 32.0891C134.776 32.0891 135.929 32.3393 137.009 32.8389C138.09 33.3412 138.918 34.0218 139.497 34.8828H139.568V24.3351H142.81V49.0625ZM133.948 46.5475C134.812 46.5475 135.592 46.402 136.289 46.1112C136.985 45.8203 137.573 45.4247 138.055 44.9237C138.534 44.4234 138.907 43.8184 139.171 43.1074C139.434 42.3977 139.568 41.624 139.568 40.7849C139.568 39.9466 139.434 39.1735 139.171 38.4625C138.907 37.7521 138.534 37.1477 138.055 36.6461C137.573 36.1458 136.985 35.7503 136.289 35.4587C135.592 35.1679 134.811 35.0224 133.948 35.0224C133.082 35.0224 132.304 35.1679 131.606 35.4587C130.908 35.7496 130.321 36.1458 129.84 36.6461C129.36 37.1477 128.988 37.7521 128.724 38.4625C128.459 39.1735 128.327 39.9466 128.327 40.7849C128.327 41.624 128.459 42.3977 128.724 43.1074C128.988 43.8184 129.36 44.4234 129.84 44.9237C130.321 45.4247 130.908 45.8209 131.606 46.1112C132.304 46.402 133.083 46.5475 133.948 46.5475Z" fill="black"/>
</g>
<defs>
<clipPath id="clip0_2297_874">
<rect width="119.883" height="38.7831" fill="white" transform="translate(23.1506 21.3307)"/>
</clipPath>
</defs>
</svg>
