<svg width="165" height="83" viewBox="0 0 165 83" fill="none" xmlns="http://www.w3.org/2000/svg">
<g clip-path="url(#clip0_2297_858)">
<mask id="mask0_2297_858" style="mask-type:alpha" maskUnits="userSpaceOnUse" x="-1" y="19" width="166" height="44">
<path d="M-0.101135 19.7388H164.581V62.4163H-0.101135V19.7388Z" fill="white"/>
</mask>
<g mask="url(#mask0_2297_858)">
<path fill-rule="evenodd" clip-rule="evenodd" d="M164.538 43.5676C164.486 43.1356 164.387 42.6977 164.244 42.2613C163.955 41.387 163.489 40.5167 162.851 39.6488C161.572 37.9176 159.608 36.1978 157.027 34.5164C151.865 31.1505 144.237 27.9274 134.701 24.992C128.588 23.1135 121.696 21.346 114.184 19.7386C139.942 26.3933 156.108 34.7353 155.435 42.5604C154.256 56.1941 102.433 63.0961 39.6888 57.9776C25.6383 56.8325 12.2337 55.18 -0.101227 53.1517C15.0843 56.1219 32.9117 58.6255 51.646 60.3263C55.58 60.6821 59.4623 60.9941 63.2767 61.2598C65.1834 61.3902 67.0713 61.5106 68.9456 61.6216C70.8193 61.7306 72.6722 61.8286 74.5054 61.9162C81.8493 62.267 88.8879 62.4307 95.5707 62.4153C108.936 62.3894 120.889 61.6326 130.986 60.2129C151.173 57.3869 163.891 51.8519 164.554 44.8773C164.595 44.4424 164.588 44.006 164.538 43.5676Z" fill="#2C2B2E"/>
</g>
<path fill-rule="evenodd" clip-rule="evenodd" d="M45.5203 45.9201C45.203 47.2596 44.8435 48.9585 44.4486 51.0107C44.0309 51.0107 43.5827 51.046 43.1016 51.1197C42.619 51.1963 41.8535 51.3207 40.8025 51.5018C39.7501 51.6825 38.9927 51.7984 38.5248 51.8571C38.0599 51.9158 37.5326 51.9487 36.9481 51.9487C35.0941 51.9487 33.4237 51.6561 31.9403 51.0719C30.458 50.4877 29.224 49.687 28.243 48.6684C27.2621 47.6523 26.527 46.5057 26.0413 45.2338C25.5561 43.9584 25.3128 42.6084 25.3128 41.1877C25.3128 39.7168 25.5881 38.3234 26.1452 37.0052C26.6999 35.687 27.5085 34.5072 28.5716 33.4712C29.6306 32.4356 30.898 31.631 32.3728 31.0617C33.846 30.4924 35.4637 30.2068 37.2315 30.2068C37.8966 30.2068 38.4847 30.2287 38.9957 30.2745C39.5042 30.3178 40.0436 30.3745 40.6099 30.4486C41.1747 30.5218 41.7318 30.5885 42.2758 30.6517C42.8218 30.7149 43.3318 30.7477 43.8109 30.7477C43.9564 32.2062 44.1911 33.8996 44.51 35.8289C44.51 35.896 44.4577 35.9528 44.3579 36.004C44.259 36.0508 44.1505 36.0772 44.0309 36.0772C43.8134 36.0772 43.6877 35.9946 43.6588 35.8289C43.4316 34.9934 43.0175 34.2171 42.4182 33.5085C41.8165 32.7999 41.0555 32.2351 40.1323 31.8116C39.2097 31.3886 38.2028 31.1771 37.1113 31.1771C35.5311 31.1771 34.0969 31.624 32.8001 32.5182C31.5064 33.4149 30.4904 34.6271 29.7553 36.1623C29.0233 37.6974 28.6557 39.3724 28.6557 41.1812C28.6557 42.9289 29.0233 44.5606 29.7553 46.0728C30.4904 47.5851 31.4988 48.7799 32.7758 49.6611C34.0584 50.5399 35.4475 50.9778 36.9461 50.9778C38.2256 50.9778 39.3602 50.7733 40.3493 50.3658C41.3338 49.9597 42.18 49.3865 42.8841 48.6465C43.5903 47.91 44.1845 46.9984 44.6702 45.9201C44.7492 45.7623 44.8887 45.6852 45.0879 45.6852C45.3743 45.6852 45.5203 45.7623 45.5203 45.9201Z" fill="#2C2B2E"/>
<path fill-rule="evenodd" clip-rule="evenodd" d="M68.7596 30.862C68.7596 31.1357 68.6821 31.27 68.5249 31.27C67.5698 31.383 66.8605 31.5422 66.3992 31.7363C65.9348 31.9304 65.6362 32.1812 65.5039 32.4897C65.3711 32.7942 65.3052 33.2366 65.3052 33.8079V43.1944C65.3052 44.8122 65.041 46.2622 64.5067 47.5446C63.9754 48.8289 63.147 49.8476 62.017 50.5955C60.8931 51.3434 59.4787 51.7186 57.7783 51.7186C56.3284 51.7186 55.0569 51.5156 53.9644 51.1055C52.8704 50.698 51.9614 50.1242 51.2349 49.3848C50.5115 48.6458 49.9736 47.7864 49.6274 46.8161C49.2796 45.8437 49.1047 44.7953 49.1047 43.6766V33.8079C49.1047 33.2237 49.0459 32.7823 48.9262 32.4802C48.8071 32.1792 48.5232 31.9304 48.0715 31.7363C47.6198 31.5422 46.9176 31.383 45.9651 31.27C45.8064 31.27 45.7273 31.1357 45.7273 30.862C45.7273 30.5763 45.8064 30.437 45.9651 30.437C46.6484 30.437 47.4464 30.4654 48.3594 30.5196C49.273 30.5699 50.0339 30.5982 50.6504 30.5982C50.9875 30.5982 51.3774 30.5893 51.8245 30.5699C52.2712 30.5544 52.6402 30.535 52.9312 30.5196C53.2263 30.4997 53.6177 30.4848 54.115 30.4654C54.6118 30.4455 55.0331 30.437 55.3788 30.437C55.4371 30.437 55.4929 30.4783 55.5431 30.5614C55.5892 30.644 55.6171 30.7445 55.6171 30.862C55.6171 31.1322 55.538 31.27 55.3788 31.27C54.4242 31.383 53.7185 31.5422 53.2603 31.7433C52.8035 31.9393 52.5135 32.1946 52.3893 32.4996C52.2641 32.8052 52.2032 33.2436 52.2032 33.8064V43.2322C52.2032 45.0495 52.4527 46.4882 52.948 47.5426C53.4428 48.5956 54.1393 49.3261 55.0265 49.7361C55.9167 50.1441 56.9885 50.3467 58.2401 50.3467C60.1874 50.3467 61.6834 49.7316 62.7263 48.4955C63.7686 47.2615 64.2897 45.3934 64.2897 42.8854V33.8064C64.2897 33.2436 64.2253 32.8052 64.089 32.4996C63.9531 32.1946 63.652 31.9373 63.1795 31.7333C62.71 31.5293 62.0008 31.3745 61.0553 31.27C60.997 31.27 60.9407 31.2282 60.8855 31.1521C60.8287 31.0725 60.8028 30.9774 60.8028 30.862C60.8028 30.7445 60.8287 30.644 60.8855 30.5614C60.9407 30.4783 60.997 30.437 61.0553 30.437C61.5121 30.437 62.127 30.4654 62.9012 30.5196C63.6712 30.5699 64.309 30.5982 64.8043 30.5982C65.2905 30.5982 65.9054 30.5699 66.6501 30.5196C67.3918 30.4654 68.0164 30.437 68.5219 30.437C68.5802 30.437 68.6349 30.4783 68.6866 30.5614C68.7353 30.644 68.7596 30.7445 68.7596 30.862Z" fill="#2C2B2E"/>
<path fill-rule="evenodd" clip-rule="evenodd" d="M83.9403 36.0587C83.9403 33.1451 82.6324 31.6886 80.019 31.6886C79.0669 31.6886 78.3713 31.7757 77.9389 31.9459C77.5085 32.1146 77.2398 32.3504 77.1344 32.646C77.0309 32.9411 76.9772 33.4089 76.9772 34.0414V40.7189C77.5744 40.797 78.3161 40.8368 79.1997 40.8368C80.3531 40.8368 81.2767 40.6577 81.9708 40.3024C82.6668 39.9491 83.1692 39.4191 83.4754 38.719C83.7857 38.0168 83.9403 37.1291 83.9403 36.0587ZM91.706 51.0818C91.706 51.3545 91.6228 51.4893 91.454 51.4893C91.0763 51.4893 90.5207 51.4614 89.7856 51.3977C89.0525 51.3345 88.5846 51.3017 88.3879 51.3017C88.0898 51.3017 87.6305 51.3345 87.0049 51.3977C86.3778 51.4614 85.9109 51.4893 85.6042 51.4893L80.971 44.0833C80.4555 43.2921 80.0555 42.7492 79.7695 42.4501C79.4882 42.1545 79.1516 41.955 78.7658 41.8529C78.3779 41.748 77.7833 41.6972 76.9772 41.6972V48.1398C76.9772 48.7046 77.0421 49.1411 77.1714 49.4506C77.3006 49.7556 77.584 50.0044 78.0246 50.1965C78.4585 50.3881 79.1693 50.5408 80.1518 50.6583C80.313 50.6956 80.3906 50.8374 80.3906 51.0818C80.3906 51.3545 80.313 51.4893 80.1533 51.4893C79.4593 51.4893 78.6527 51.4614 77.7285 51.3977C76.8074 51.3345 76.0368 51.3017 75.4213 51.3017C74.8094 51.3017 74.0424 51.3345 73.1324 51.3977C72.2173 51.4614 71.4194 51.4893 70.7329 51.4893C70.5682 51.4893 70.482 51.3545 70.482 51.0837C70.482 50.8285 70.5682 50.6867 70.7365 50.6583C71.6977 50.5408 72.4039 50.3881 72.8475 50.1965C73.288 50.0089 73.5694 49.7666 73.6956 49.474C73.8188 49.1824 73.8807 48.7395 73.8807 48.1443V34.0414C73.8807 33.4462 73.8188 33.0058 73.7022 32.7122C73.5826 32.4201 73.2906 32.1723 72.8297 31.9653C72.3684 31.7628 71.6688 31.6055 70.7365 31.4985C70.5682 31.4985 70.482 31.3612 70.482 31.089C70.482 30.973 70.5033 30.873 70.5504 30.7924C70.5935 30.7103 70.6554 30.666 70.7329 30.666C71.4194 30.666 72.2173 30.6939 73.1324 30.7486C74.0454 30.7989 74.8094 30.8272 75.4213 30.8272C76.0368 30.8272 76.8074 30.7989 77.73 30.7486C78.6527 30.6939 79.4608 30.666 80.1553 30.666C82.4483 30.666 84.209 31.1452 85.4379 32.1051C86.6663 33.0645 87.2842 34.3817 87.2842 36.0522C87.2842 37.1554 86.8462 38.1631 85.9687 39.0787C85.0916 39.9904 83.9353 40.699 82.496 41.1941L87.4353 48.5673C87.7968 49.1211 88.2505 49.575 88.8072 49.9193C89.3587 50.2657 90.252 50.512 91.4855 50.6583C91.634 50.6867 91.706 50.8285 91.706 51.0818Z" fill="#2C2B2E"/>
<path fill-rule="evenodd" clip-rule="evenodd" d="M110.544 35.6678C110.544 35.8838 110.37 35.9883 110.025 35.9883C109.863 35.9883 109.763 35.9231 109.722 35.7853C109.266 34.3133 108.616 33.3041 107.775 32.7498C106.935 32.2004 105.748 31.9277 104.217 31.9277H102.784C102.287 31.9277 101.946 32.0044 101.755 32.1636C101.564 32.3159 101.471 32.6169 101.471 33.0683V48.2745C101.471 48.8393 101.536 49.2757 101.667 49.5832C101.794 49.8882 102.081 50.139 102.518 50.3266C102.958 50.5187 103.67 50.671 104.66 50.7869C104.82 50.8168 104.898 50.9591 104.898 51.2139C104.898 51.4846 104.821 51.6199 104.661 51.6199C104.314 51.6199 103.91 51.613 103.446 51.5916C102.985 51.5672 102.608 51.5498 102.315 51.5259C102.023 51.5065 101.642 51.4866 101.178 51.4627C100.711 51.4433 100.304 51.4348 99.956 51.4348C99.3324 51.4348 98.5562 51.4627 97.632 51.5259C96.7104 51.5891 95.9109 51.6199 95.2377 51.6199C95.0764 51.6199 94.9974 51.4846 94.9974 51.2139C94.9974 50.9701 95.0764 50.8282 95.2377 50.7869C96.2181 50.671 96.9258 50.5187 97.3593 50.3266C97.7968 50.139 98.0802 49.8882 98.208 49.5832C98.3347 49.2757 98.4011 48.8393 98.4011 48.2745V33.0683C98.4011 32.6169 98.3078 32.3159 98.1258 32.1636C97.9428 32.0044 97.5991 31.9277 97.0906 31.9277H95.9018C95.0293 31.9277 94.1578 32.0805 93.2914 32.3855C92.4215 32.6966 91.6702 33.1384 91.0365 33.7271C90.4012 34.3083 89.9577 34.9941 89.7097 35.7853C89.652 35.9231 89.5409 35.9883 89.3833 35.9883C89.0365 35.9883 88.8611 35.8838 88.8611 35.6678C89.4279 34.165 89.9688 32.4557 90.4874 30.5354C91.8248 30.8175 94.9842 30.9574 99.956 30.9574C105.078 30.9574 108.316 30.8175 109.665 30.5354C109.723 31.0728 109.792 31.5899 109.865 32.0924C109.941 32.595 110.038 33.1578 110.157 33.7838C110.276 34.4064 110.405 35.0334 110.544 35.6678Z" fill="#2C2B2E"/>
<path fill-rule="evenodd" clip-rule="evenodd" d="M122.193 51.0838C122.193 51.3545 122.115 51.4893 121.957 51.4893C121.282 51.4893 120.489 51.4614 119.574 51.3978C118.663 51.3346 117.895 51.3017 117.274 51.3017C116.648 51.3017 115.873 51.3346 114.95 51.3978C114.03 51.4614 113.224 51.4893 112.543 51.4893C112.383 51.4893 112.305 51.3545 112.305 51.0838C112.305 50.8394 112.383 50.6981 112.543 50.6588C113.524 50.5409 114.237 50.3886 114.673 50.1965C115.11 50.0089 115.393 49.7626 115.521 49.4526C115.65 49.147 115.717 48.7091 115.717 48.1443V34.0414C115.717 33.479 115.651 33.0426 115.528 32.7351C115.405 32.4256 115.115 32.1748 114.657 31.9752C114.201 31.7757 113.499 31.6165 112.543 31.499C112.383 31.499 112.305 31.3647 112.305 31.091C112.305 30.973 112.327 30.873 112.371 30.7924C112.419 30.7103 112.473 30.666 112.543 30.666C113.224 30.666 114.03 30.6939 114.95 30.7486C115.873 30.7989 116.648 30.8272 117.274 30.8272C117.895 30.8272 118.663 30.7989 119.574 30.7486C120.489 30.6939 121.282 30.666 121.957 30.666C122.115 30.666 122.193 30.8083 122.193 31.091C122.193 31.3647 122.115 31.499 121.957 31.499C121.002 31.6165 120.302 31.7712 119.845 31.9688C119.398 32.1628 119.109 32.4107 118.992 32.7127C118.872 33.0143 118.812 33.4562 118.812 34.0414V48.1443C118.812 48.7395 118.875 49.1843 118.998 49.4809C119.122 49.78 119.4 50.0194 119.831 50.205C120.266 50.3901 120.971 50.5409 121.957 50.6588C122.115 50.6867 122.193 50.8285 122.193 51.0838Z" fill="#2C2B2E"/>
<path fill-rule="evenodd" clip-rule="evenodd" d="M137.349 45.4652C137.349 46.7695 137.082 47.912 136.538 48.8913C135.997 49.8662 135.224 50.6225 134.215 51.153C133.207 51.6825 132.021 51.9487 130.664 51.9487C130.078 51.9487 129.607 51.9158 129.253 51.8571C128.901 51.7984 128.372 51.6825 127.667 51.5083C126.963 51.3336 126.403 51.2072 125.986 51.1286C125.568 51.0505 125.106 51.0087 124.6 51.0087C124.52 49.2292 124.397 47.5348 124.227 45.92C124.227 45.7643 124.383 45.6852 124.688 45.6852C124.897 45.6852 125.024 45.7643 125.077 45.92C125.462 47.2034 125.896 48.2001 126.369 48.9172C126.845 49.6303 127.439 50.1538 128.146 50.4832C128.853 50.8146 129.73 50.9803 130.772 50.9803C132.039 50.9803 132.999 50.6225 133.656 49.9075C134.31 49.1919 134.636 48.2215 134.636 46.9974C134.636 45.9385 134.236 45.0651 133.438 44.3779C132.642 43.6922 131.397 42.8657 129.707 41.8898C128.015 40.9205 126.755 40.0213 125.916 39.1948C125.077 38.3692 124.659 37.3008 124.659 36.001C124.659 34.9869 124.927 34.036 125.462 33.1507C125.998 32.257 126.755 31.5459 127.732 31.0114C128.709 30.474 129.849 30.2068 131.146 30.2068C131.663 30.2068 132.088 30.2287 132.42 30.2745C132.753 30.3183 133.084 30.3725 133.41 30.4427C133.737 30.5088 134.104 30.5795 134.519 30.6452C134.93 30.7129 135.369 30.7477 135.834 30.7477C135.946 32.3525 136.11 33.8966 136.332 35.375C136.332 35.5407 136.198 35.6229 135.925 35.6229C135.656 35.6229 135.507 35.5407 135.477 35.375C135.137 33.8782 134.629 32.8043 133.943 32.152C133.259 31.5001 132.319 31.1771 131.119 31.1771C130.357 31.1771 129.692 31.3289 129.13 31.631C128.573 31.933 128.145 32.3525 127.847 32.8989C127.55 33.4428 127.398 34.0872 127.398 34.8257C127.398 35.7592 127.785 36.5474 128.56 37.1894C129.336 37.8353 130.558 38.6334 132.224 39.5928C133.894 40.5518 135.164 41.4614 136.039 42.3282C136.913 43.1961 137.349 44.2386 137.349 45.4652Z" fill="#2C2B2E"/>
</g>
<defs>
<clipPath id="clip0_2297_858">
<rect width="165" height="44.2548" fill="white" transform="translate(0 19.2412)"/>
</clipPath>
</defs>
</svg>
