<svg width="165" height="84" viewBox="0 0 165 84" fill="none" xmlns="http://www.w3.org/2000/svg">
<path d="M148.976 40.8512L139.034 30.88C137.772 29.6145 136.467 29.1781 134.443 29.1781H17.2854C16.3064 29.1781 15.5014 29.9854 15.5014 30.9672V53.2443C15.5014 54.2262 16.3064 55.0335 17.2854 55.0335H134.443C136.467 55.0335 137.772 54.5971 139.034 53.3316L148.976 43.3604C149.673 42.684 149.673 41.5494 148.976 40.8512Z" fill="#702283"/>
<path fill-rule="evenodd" clip-rule="evenodd" d="M109.271 42.1168C109.271 38.7349 107.748 36.7494 104.158 36.7494C100.59 36.7494 99.0457 38.7349 99.0457 42.1168C99.0457 45.4988 100.569 47.4843 104.158 47.4843C107.748 47.4843 109.271 45.4988 109.271 42.1168ZM101.352 42.1168C101.352 40.0222 102.005 38.7349 104.158 38.7349C106.312 38.7349 106.965 40.0222 106.965 42.1168C106.965 44.2114 106.312 45.4988 104.158 45.4988C102.005 45.4988 101.352 44.2114 101.352 42.1168Z" fill="white"/>
<path fill-rule="evenodd" clip-rule="evenodd" d="M53.7925 47.2443V36.9894H57.7522C61.2985 36.9894 62.7344 38.9749 62.7344 42.1168C62.7344 45.2587 61.2767 47.2443 57.7522 47.2443H53.7925ZM57.6869 45.2151C59.819 45.2151 60.45 43.9496 60.45 42.1168C60.45 40.284 59.819 39.0185 57.6869 39.0185H56.0769V45.2151H57.6869Z" fill="white"/>
<path d="M72.7858 43.055H67.9559V45.2151H73.4385V47.2443H65.6497V36.9894H73.4385V39.0185H67.9559V41.0477H72.7858V43.055Z" fill="white"/>
<path d="M78.66 40.7204L83.8598 47.2443H85.7526V36.9894H83.4682L83.5987 43.5132L78.3772 36.9894H76.4844V47.2443H78.7688L78.66 40.7204Z" fill="white"/>
<path d="M93.9547 39.0185V47.2443H91.6485V39.0185H88.4068V36.9894H97.1964V39.0185H93.9547Z" fill="white"/>
<path d="M119.54 47.2443L114.34 40.7204L114.449 47.2443H112.165V36.9894H114.058L119.257 43.5132L119.149 36.9894H121.433V47.2443H119.54Z" fill="white"/>
<path d="M128.7 41.0695C127.22 40.9386 126.654 40.7859 126.654 40.0222C126.654 39.1713 127.198 38.8004 128.678 38.8222C130.027 38.8222 131.289 39.0622 132.202 39.4113V37.3385C131.31 36.9458 129.722 36.7712 128.7 36.7712C125.675 36.7712 124.414 38.0149 124.414 40.044C124.414 42.0296 125.327 42.7059 128.395 42.9678C129.874 43.0769 130.397 43.3387 130.397 44.1678C130.397 44.9969 129.809 45.4333 128.134 45.4333C126.763 45.4333 125.414 45.1497 124.588 44.8224V46.8952C125.306 47.2224 127.111 47.4843 128.134 47.4843C131.506 47.4843 132.681 46.0006 132.681 44.1678C132.681 41.9859 131.767 41.3313 128.7 41.0695Z" fill="white"/>
<path d="M27.7502 44.386C27.3586 45.1715 26.6624 45.8042 25.6616 46.2624C24.6826 46.7206 23.7905 46.9388 23.0073 46.9388C22.1153 46.9606 21.5714 46.7643 21.3973 46.3933C21.2233 46.0224 21.1363 45.7388 21.1363 45.586V45.4333C21.1363 45.3897 21.1798 45.346 21.2668 45.3242C21.2886 45.3242 21.3321 45.3242 21.4409 45.346C21.5279 45.3679 21.6584 45.3679 21.8542 45.346L22.8333 45.3024C24.2257 45.2369 25.27 44.8878 25.9444 44.2551C26.6406 43.6223 27.0322 42.9241 27.1628 42.1168L27.228 41.6586C27.2498 41.5277 27.2498 41.4186 27.2498 41.3532C27.228 41.2877 27.2063 41.2441 27.141 41.2441L26.967 41.2659L26.2055 41.2877L25.5528 41.3314L24.8784 41.3968C24.5085 41.4405 24.2039 41.5059 23.9646 41.5714C23.7253 41.6368 23.573 41.6586 23.486 41.6586C23.3337 41.6368 23.2249 41.5932 23.1596 41.4841C23.0943 41.375 23.0726 41.2659 23.0726 41.135C23.0726 41.0041 23.0943 40.895 23.1596 40.7859C23.2031 40.6986 23.3554 40.5459 23.6165 40.2841C23.8776 40.0222 24.1169 39.9131 24.3562 39.9568L24.5738 40.0004C24.639 40.0222 24.7478 40.044 24.8784 40.044H25.2482L25.7269 40.0004H26.3795L26.9017 39.9568C27.1193 39.9568 27.2498 39.935 27.2498 39.9131C27.2716 39.8913 27.2716 39.8695 27.2716 39.8259V39.7604L27.2498 39.6077V38.844L27.2063 38.3204C27.2063 38.3204 27.1845 38.2331 27.2063 38.0804C27.2063 37.9276 27.2498 37.8185 27.3151 37.7312C27.3803 37.644 27.4891 37.5785 27.6197 37.5349C27.7502 37.4912 27.8372 37.4694 27.8807 37.4694C28.3594 37.5131 28.664 37.6876 28.7727 37.9494C28.9033 38.2113 28.9468 38.4513 28.9468 38.6476L28.925 39.6295V39.804C28.925 39.8913 28.925 39.935 28.9468 39.935C28.9468 39.9568 28.9903 39.9568 29.0121 39.935L29.3384 39.9131L29.8388 39.935L30.9049 39.9568L32.4931 40.0877C32.7541 40.1095 32.9717 40.1531 33.124 40.1968C33.2763 40.2404 33.3416 40.3713 33.3416 40.6113C33.3416 40.8077 33.2545 40.9823 33.0805 41.135C32.9064 41.2877 32.0797 41.3314 30.5785 41.2659L29.643 41.2441L29.0991 41.2223C28.9685 41.2223 28.9033 41.2441 28.9033 41.2877V41.3532C28.9033 41.4405 29.0338 41.615 29.2949 41.855C29.556 42.095 30.1216 42.5532 30.9919 43.2296C31.8621 43.906 32.6889 44.4078 33.4504 44.7351C34.2336 45.0624 34.734 45.2369 34.9515 45.2806C35.1691 45.3024 35.2779 45.346 35.2779 45.3679C35.2779 45.3788 35.2833 45.3897 35.2888 45.4006C35.2942 45.4115 35.2996 45.4224 35.2996 45.4333V45.5424C35.2126 45.9133 34.9298 46.2624 34.4294 46.6334C33.929 46.9825 33.4721 47.157 33.037 47.157C32.7759 47.157 32.5366 47.0697 32.3408 46.8734C32.1232 46.6988 31.7098 46.2624 31.0789 45.586C30.448 44.9097 29.9693 44.386 29.6212 43.9714C29.381 43.6662 29.1997 43.4556 29.0773 43.3135C29.0335 43.2626 28.9972 43.2205 28.9685 43.186C28.9019 43.1191 28.8516 43.0605 28.8126 43.0151C28.788 42.9863 28.7678 42.9629 28.751 42.946L28.5987 42.7278L28.5552 42.706L28.4899 42.7714C28.3811 43.0551 28.1418 43.5787 27.7502 44.386Z" fill="white"/>
<path d="M46.9175 41.1568C46.7652 41.0913 46.6347 41.0477 46.4824 41.0477C46.4627 41.0646 46.4438 41.0808 46.4254 41.0964C46.302 41.2019 46.2073 41.2828 46.1125 41.3968C46.069 41.4623 46.0037 41.6586 45.9602 41.9423C45.9167 42.2478 45.8297 42.5096 45.7427 42.7496L45.5469 43.2296C45.4381 43.4478 45.3728 43.5569 45.3293 43.5569C45.2858 43.5787 45.2205 43.4914 45.1335 43.3387C45.0465 43.186 44.9594 42.946 44.8507 42.6405C44.7419 42.335 44.6984 42.0732 44.6766 41.855C44.6548 41.6586 44.6548 41.3968 44.6548 41.0914C44.6548 40.9168 44.6548 40.8077 44.6984 40.7641C44.7419 40.7204 44.8071 40.6986 44.9377 40.6986H45.4381L46.1778 40.6768C47.3526 40.655 47.9836 40.6113 48.0923 40.5022C48.2011 40.3931 48.2664 40.2841 48.2664 40.1313C48.2664 39.8695 48.1141 39.7168 47.7878 39.6731H47.3744L46.6564 39.6513H45.8732C45.6733 39.6513 45.5142 39.6595 45.3909 39.6658C45.313 39.6698 45.2493 39.6731 45.1988 39.6731C45.0682 39.6949 44.9812 39.6949 44.9594 39.6731C44.8507 39.6731 44.7636 39.6513 44.7201 39.6077C44.6766 39.564 44.6548 39.4768 44.6548 39.3458C44.6766 39.2367 44.6766 39.0622 44.6766 38.8222C44.6766 38.7131 44.682 38.5985 44.6875 38.484C44.6929 38.3694 44.6984 38.2549 44.6984 38.1458C44.6984 37.9058 44.6548 37.7094 44.5678 37.5349C44.459 37.3603 44.2632 37.273 43.9586 37.273C43.5235 37.273 43.2624 37.5131 43.1972 37.9494C43.1754 38.0367 43.1754 38.1022 43.1754 38.1894L43.1972 38.364L43.2189 39.1058L43.2407 39.3677V39.4768C43.2407 39.5422 43.2407 39.5858 43.2189 39.6077C43.1972 39.6295 43.1537 39.6513 43.0449 39.6513H42.675C42.4792 39.6513 42.2181 39.6513 41.8483 39.6731C41.6896 39.6831 41.5401 39.6885 41.4015 39.6935C41.2361 39.6995 41.0865 39.7049 40.9563 39.7168H40.3906C40.2383 39.7168 40.1295 39.6731 40.0425 39.5858L39.8032 39.3895C39.6726 39.2804 39.4986 39.2149 39.3463 39.2149C39.194 39.2149 39.02 39.2804 38.8241 39.3895C38.6283 39.4986 38.5413 39.6513 38.5196 39.8695C38.5196 40.0877 38.5413 40.2841 38.5848 40.4586L38.7589 41.0914C38.8024 41.2659 38.8459 41.4841 38.8677 41.6805C38.8945 41.8017 38.9048 41.9146 38.9139 42.0141C38.9195 42.0757 38.9246 42.1322 38.9329 42.1823C38.9329 42.2914 38.9329 42.5314 38.8894 42.9023C38.8677 43.2732 38.7806 43.6223 38.6283 43.9496C38.476 44.2769 38.2802 44.6042 38.0409 44.9315C37.8016 45.2806 37.5188 45.4988 37.1924 45.6079L36.6703 45.7824C36.431 45.8915 36.3222 46.0006 36.3222 46.1097C36.3222 46.197 36.431 46.3715 36.6268 46.6115C36.8226 46.8515 37.1054 47.0043 37.4535 47.0043C37.7581 47.0261 38.1279 46.8952 38.6066 46.6552C39.0852 46.4152 39.4116 46.0442 39.5856 45.5424C39.7814 45.0406 39.8902 44.5387 39.9555 44.0369C40.0207 43.5351 40.0643 43.2296 40.086 43.1205C40.1078 43.0114 40.1513 42.946 40.1948 42.8805C40.2383 42.8369 40.4341 42.7932 40.7387 42.7496L41.1738 42.7059C41.5872 42.6841 41.8483 42.7059 41.9788 42.815C42.0876 42.9241 42.1529 43.0987 42.1746 43.3823C42.1746 43.8405 42.0658 44.2551 41.87 44.6042C41.6742 44.9533 41.3479 45.1278 40.891 45.106C40.6952 45.106 40.5647 45.0842 40.4341 45.0406L40.2383 44.9751C40.1513 44.9751 40.1078 45.0187 40.1078 45.0624C40.086 45.106 40.1078 45.1497 40.1513 45.1933L40.3471 45.586C40.5647 45.9133 40.9345 46.0661 41.4784 46.0442C42.0876 46.0442 42.5445 45.826 42.8273 45.3897C43.1101 44.9533 43.2624 44.6042 43.3277 44.3205C43.3712 44.0369 43.4147 43.6442 43.4147 43.1423V42.575C43.4147 42.4005 43.393 42.2478 43.3277 42.1168C43.2624 41.9859 43.1319 41.8332 42.9579 41.6805C42.762 41.5059 42.588 41.4623 42.3922 41.5277L42.1094 41.6368C41.8483 41.7241 41.5002 41.7677 41.0433 41.7896H40.3906C40.2601 41.7896 40.173 41.7677 40.1295 41.7241C40.086 41.6805 40.0643 41.5059 40.0643 41.2441C40.0445 41.1649 40.0606 41.0857 40.08 40.9902C40.082 40.9804 40.084 40.9705 40.086 40.9604C40.1078 40.8513 40.3036 40.7859 40.6734 40.7422C41.0433 40.7204 41.8483 40.6986 43.1101 40.6768C43.2842 40.6768 43.3712 40.6986 43.393 40.7859C43.4147 40.8513 43.4365 41.0041 43.4582 41.2441C43.4728 41.4049 43.5069 41.5951 43.5475 41.8212C43.5675 41.9326 43.589 42.0527 43.6105 42.1823C43.6438 42.3323 43.6707 42.4632 43.6936 42.575C43.7308 42.756 43.7577 42.8869 43.7846 42.9678C43.8005 43.0157 43.8194 43.0811 43.8433 43.1641C43.8846 43.3079 43.9412 43.5043 44.0239 43.7533C44.0356 43.7864 44.0469 43.8187 44.0579 43.8501C44.17 44.1698 44.2493 44.3958 44.3285 44.4951C44.3428 44.5286 44.3561 44.5589 44.3681 44.5863C44.4108 44.684 44.4373 44.7447 44.4373 44.7787C44.4373 44.8224 44.372 44.8878 44.2632 44.9969L43.8716 45.3242C43.5888 45.6079 43.4147 45.7388 43.3495 45.7824C43.331 45.7916 43.2541 45.8244 43.1218 45.8806C42.9419 45.9571 42.6596 46.0771 42.2834 46.2406C42.0441 46.3279 41.9353 46.4152 41.9353 46.4806C41.9353 46.5461 41.9571 46.6115 42.0006 46.677C42.0223 46.7424 42.1094 46.8079 42.1964 46.8515C42.3052 46.917 42.4357 46.9388 42.588 46.917C43.306 46.917 43.9151 46.7206 44.372 46.3715C44.8289 46.0224 45.09 45.826 45.1117 45.826C45.1552 45.826 45.2858 45.957 45.4816 46.1751C45.6774 46.3933 46.0473 46.6988 46.5476 47.0915C47.048 47.4843 47.4832 47.6806 47.8313 47.6806C48.0488 47.6806 48.3534 47.6152 48.7233 47.4843C49.0931 47.3315 49.4195 47.157 49.7023 46.917C49.9851 46.677 50.1592 46.4588 50.2462 46.2406C50.3332 46.0442 50.3768 45.8697 50.3985 45.7606C50.4068 45.7189 50.4151 45.6836 50.4222 45.6535C50.4337 45.6047 50.442 45.5694 50.442 45.5424C50.442 45.4551 50.355 45.4115 50.1592 45.4551C49.9634 45.4988 49.7241 45.5206 49.4195 45.4988C48.1576 45.4551 47.2221 45.2369 46.6129 44.8442C46.4171 44.7133 46.3301 44.626 46.3301 44.5606C46.3301 44.5013 46.3658 44.442 46.421 44.3502C46.4268 44.3407 46.4327 44.3308 46.4389 44.3205C46.5041 44.2114 46.6129 44.0151 46.7652 43.6878C46.9175 43.3605 47.0263 42.9678 47.0916 42.5096C47.1351 42.3132 47.1351 42.0514 47.1351 41.7459C47.1133 41.4186 47.048 41.2441 46.9175 41.1568Z" fill="white"/>
<path d="M45.9152 38.5905C45.8885 38.6221 45.8603 38.6555 45.8297 38.6913C45.6774 38.8222 45.6121 38.9095 45.6121 38.9531C45.6339 39.0186 45.6774 39.084 45.7427 39.1277C45.8297 39.1713 45.9602 39.1713 46.156 39.1058L46.6564 38.9749C47.1786 38.8222 47.5049 38.6476 47.6355 38.4513C47.679 38.364 47.7007 38.2331 47.7007 38.0367C47.7007 37.8403 47.6137 37.6876 47.4179 37.6003C47.2221 37.5131 47.0916 37.4694 46.9828 37.4694C46.874 37.4912 46.7652 37.5349 46.6782 37.6221L46.3518 38.0803C46.3385 38.1205 46.3006 38.1606 46.2533 38.2108C46.2234 38.2425 46.1897 38.2781 46.156 38.3204C46.0728 38.4039 46.0022 38.4874 45.9152 38.5905Z" fill="white"/>
</svg>
