<svg width="165" height="83" viewBox="0 0 165 83" fill="none" xmlns="http://www.w3.org/2000/svg">
<path d="M92.6566 54.9339H95.4571C96.1786 54.9339 96.6005 54.7428 96.9124 54.4223C97.2548 54.0711 97.4382 53.5534 97.4382 52.9618C97.4382 52.3086 97.267 51.8155 96.9124 51.4828C96.4905 51.0883 95.9341 50.9836 95.1269 50.9836H92.6566V54.9339ZM89.7094 50.3427C89.7094 49.1163 90.3025 48.5863 91.4704 48.5863H95.7567C97.1753 48.5863 98.3493 48.9006 99.1748 49.6771C99.9514 50.4043 100.416 51.4951 100.416 52.9618C100.416 55.3591 98.9669 57.3311 96.0808 57.3311H92.6566V60.5357C92.6566 61.4293 92.088 62.0394 91.183 62.0394C90.2719 62.0394 89.7032 61.4355 89.7032 60.5357V50.3427H89.7094Z" fill="#0078BF"/>
<path d="M109.515 54.9339H112.315C113.037 54.9339 113.459 54.7428 113.771 54.4223C114.113 54.0711 114.296 53.5534 114.296 52.9618C114.296 52.3086 114.125 51.8155 113.771 51.4828C113.349 51.0883 112.792 50.9836 111.979 50.9836H109.521V54.9339H109.515ZM106.561 50.3427C106.561 49.1163 107.148 48.5863 108.322 48.5863H112.609C114.027 48.5863 115.201 48.9006 116.027 49.6771C116.803 50.4043 117.268 51.4951 117.268 52.9618C117.268 55.3591 115.819 57.3311 112.933 57.3311H109.515V60.5357C109.515 61.4293 108.946 62.0394 108.041 62.0394C107.13 62.0394 106.568 61.4355 106.568 60.5357V50.3427H106.561Z" fill="#0078BF"/>
<path d="M138.033 56.8073C139.501 56.0986 140.234 54.6195 140.234 52.9125C140.234 51.4519 139.77 50.4043 138.993 49.6771C138.168 48.9068 136.994 48.5863 135.575 48.5863H131.258C130.084 48.5863 129.497 49.1163 129.497 50.3427V60.5295C129.497 61.4231 130.066 62.0332 130.977 62.0332C131.882 62.0332 132.45 61.4293 132.45 60.5295V57.2572H135.202L137.391 61.1458C137.703 61.7313 138.07 62.0271 138.779 62.0271C139.36 62.0271 140.124 61.6758 140.124 60.6528C140.124 60.3755 140.008 60.092 139.874 59.864C139.702 59.5805 138.724 57.9535 138.033 56.8073ZM132.45 50.9836H134.945C135.838 50.9836 136.376 51.15 136.731 51.4828C137.085 51.8155 137.257 52.2592 137.257 52.9187C137.257 53.5288 137.073 54.0094 136.749 54.3422C136.388 54.7181 135.85 54.8722 135.178 54.8722H132.45V50.9836Z" fill="#0078BF"/>
<path fill-rule="evenodd" clip-rule="evenodd" d="M57.8951 49.9667C56.8923 49.0177 55.6633 48.5863 53.7739 48.5863H50.099C49.0473 48.5863 48.4175 49.0054 48.4175 50.3427V60.1475C48.4175 61.4848 49.0473 61.9038 50.099 61.9038H54.0368C57.5038 61.9038 59.7356 59.7284 59.7356 55.3591C59.7356 52.9248 59.0997 51.1007 57.8951 49.9667ZM55.8039 58.6006C55.3148 59.1306 54.6116 59.3956 53.6271 59.3956H51.3708V51.0883H53.2603C54.3364 51.0883 55.0885 51.2362 55.6878 51.8587C56.3604 52.5551 56.7456 53.7136 56.7456 55.3652C56.7456 56.7765 56.4337 57.9166 55.8039 58.6006Z" fill="#0078BF"/>
<path d="M82.2985 59.5743C82.1517 59.149 79.6141 51.8463 79.2106 50.6754C78.9599 49.942 78.7275 49.5106 78.4157 49.1902C77.9693 48.728 77.4007 48.5924 76.832 48.5924C76.1594 48.5924 75.6458 48.8143 75.2605 49.1779C74.9059 49.5106 74.6674 49.9852 74.4718 50.5398C74.0988 51.5936 71.3044 59.2538 71.1821 59.5804C71.0415 59.9687 70.9008 60.4062 70.9008 60.7144C70.9008 61.5032 71.4634 62.0085 72.2644 62.0085C72.9125 62.0085 73.3467 61.7189 73.5607 61.0841C73.6707 60.7637 73.952 59.9379 74.3128 58.8779H79.1433C79.3879 59.5989 79.6264 60.3261 79.871 61.0471C80.0727 61.6018 80.4396 62.0085 81.2039 62.0085C81.9499 62.0085 82.5858 61.4354 82.5858 60.7144C82.5858 60.3816 82.4452 59.9933 82.2985 59.5743ZM75.1016 56.5546C75.6824 54.8475 76.3 53.0172 76.7403 51.7292C77.15 52.9371 77.7247 54.6565 78.3668 56.5546H75.1016Z" fill="#0078BF"/>
<path d="M104.629 60.5295C104.629 61.4231 104.06 62.0332 103.156 62.0332C102.244 62.0332 101.676 61.4293 101.676 60.5295V50.09C101.676 49.1964 102.244 48.5863 103.156 48.5863C104.06 48.5863 104.629 49.1902 104.629 50.09V60.5295Z" fill="#0078BF"/>
<path d="M62.7868 61.8977C61.7351 61.8977 61.087 61.4786 61.087 60.1413V50.09C61.087 49.1964 61.6556 48.5863 62.5667 48.5863C63.4717 48.5863 64.0403 49.1902 64.0403 50.09V59.4079H68.5957C69.146 59.4079 69.5374 59.5127 69.7942 59.7777C70.0021 59.9872 70.0938 60.283 70.0938 60.6466C70.0938 61.0102 70.0021 61.306 69.8003 61.5156C69.5618 61.7682 69.1705 61.9038 68.5957 61.9038H62.7868V61.8977Z" fill="#0078BF"/>
<path d="M120.215 61.8976C119.164 61.8976 118.516 61.4786 118.516 60.1413V50.3427C118.516 49.0054 119.206 48.5863 120.258 48.5863H126.471C127.021 48.5863 127.412 48.6911 127.669 48.9561C127.877 49.1656 127.969 49.4614 127.969 49.825C127.969 50.1824 127.877 50.4844 127.675 50.6939C127.437 50.9466 127.045 51.076 126.471 51.076H121.469V54.0218H125.798C126.336 54.0218 126.746 54.1265 126.99 54.3669C127.204 54.5702 127.296 54.866 127.296 55.2358C127.296 55.6056 127.204 55.8952 126.996 56.1047C126.77 56.3266 126.385 56.456 125.786 56.456H121.463V59.3956H126.605C127.155 59.3956 127.547 59.5004 127.804 59.7654C128.011 59.9749 128.103 60.2707 128.103 60.6343C128.103 60.9979 128.011 61.2937 127.81 61.5032C127.571 61.7559 127.18 61.8853 126.605 61.8853H120.215V61.8976Z" fill="#0078BF"/>
<path d="M36.5795 74.7222C34.1214 74.7222 32.4766 74.2415 31.0152 73.4095C29.352 72.4543 27.9884 71.0369 27.0957 69.3299C26.1969 67.6166 25.9462 65.7863 25.9462 63.4322V18.8392C25.9462 16.4851 26.1969 14.6486 27.0957 12.9415C27.9884 11.2345 29.3581 9.81089 31.0152 8.86184C32.4766 8.02988 34.1153 7.54919 36.5795 7.54919H82.0294C84.4875 7.54919 86.1323 8.02988 87.5937 8.86184C89.2569 9.81705 90.6205 11.2345 91.5132 12.9415C92.4059 14.6486 92.6628 16.4851 92.6628 18.8392V41.3452C92.6628 42.3312 92.1186 42.8489 91.2136 42.8489C90.3086 42.8489 89.8195 42.3436 89.691 41.3452C88.7861 34.48 86.383 28.9953 82.1395 24.6567C77.3334 19.7451 70.534 16.7316 62.4627 16.7316C46.1978 16.7316 35.0875 28.9644 35.0875 44.3218C35.0875 52.0621 37.9125 59.0074 42.7919 63.993C46.956 68.2452 52.4897 70.9938 59.3075 71.7456C60.6466 71.8935 61.0869 72.4174 61.0869 73.2986C61.0869 73.7177 60.9585 74.0689 60.7017 74.3155C60.4326 74.5804 59.9862 74.7283 59.3687 74.7283L36.5795 74.7222Z" fill="#0078BF"/>
</svg>
