<svg width="165" height="84" viewBox="0 0 165 84" fill="none" xmlns="http://www.w3.org/2000/svg">
<path d="M6.12602 35.7491V30.5918H11.2538L11.8324 28.9841H6.12602V23.9303H12.506L13.0846 22.3226H4.37448V37.3567H12.8785L13.465 35.7491H6.12602Z" fill="#1D1D1B"/>
<path d="M26.6055 33.6082C26.447 34.0538 26.2806 34.6348 26.1696 35.0487C26.0587 34.6348 25.8843 34.0538 25.7258 33.6082L21.6442 22.3226H19.7737L25.3216 37.2612V37.3567H27.0414L32.5893 22.3226H30.7347L26.6055 33.6082Z" fill="#1D1D1B"/>
<path d="M49.1298 35.7491H41.7908V30.5918H46.9186L47.5051 28.9841H41.7908V23.9303H48.1708L48.7573 22.3226H40.0472V37.3567H48.5513L49.1298 35.7491Z" fill="#1D1D1B"/>
<path d="M59.1001 31.1569H62.5477L65.8685 37.3568H67.8657L64.5845 31.1967L64.2992 30.743C65.1286 30.447 65.8414 29.8912 66.3322 29.1575C66.8231 28.4238 67.0662 27.5511 67.0256 26.6681C67.0822 25.8492 66.8926 25.032 66.4814 24.3225C66.0702 23.613 65.4563 23.0438 64.7193 22.6888C63.8217 22.3507 62.8618 22.2122 61.9057 22.2829H57.3882V37.3568H59.1001V31.1569ZM65.1789 26.7079C65.214 27.0823 65.1679 27.4599 65.0437 27.8147C64.9196 28.1694 64.7203 28.493 64.4597 28.763C64.1991 29.0331 63.8833 29.2432 63.5341 29.3789C63.1848 29.5146 62.8105 29.5727 62.4367 29.5492H59.1001V23.9303H61.9136C62.6021 23.8677 63.295 23.9828 63.9267 24.2646C64.3417 24.514 64.6788 24.875 64.9001 25.3068C65.1214 25.7385 65.218 26.2239 65.1789 26.7079Z" fill="#1D1D1B"/>
<path d="M102.532 29.0239H94.3289V22.3226H92.5774V37.3567H94.3289V30.6316H102.532V37.3567H104.275V22.3226H102.532V29.0239Z" fill="#1D1D1B"/>
<path d="M115.403 30.5918H120.531L121.117 28.9841H115.403V23.9303H121.783L122.369 22.3226H113.659V37.3567H122.155L122.742 35.7491H115.403V30.5918Z" fill="#1D1D1B"/>
<path d="M135.724 22.3226H130.834V37.3567H135.724C140.36 37.3567 143.245 34.4757 143.245 29.8277C143.245 25.1798 140.36 22.3226 135.724 22.3226ZM132.554 23.9144H135.549C139.211 23.9144 141.398 26.119 141.398 29.8118C141.398 33.5047 139.211 35.7331 135.549 35.7331H132.554V23.9144Z" fill="#1D1D1B"/>
<path d="M28.1906 55.2481C28.1906 57.6834 26.9384 59.2274 24.4577 59.2274C21.977 59.2274 20.7486 57.7312 20.7486 55.3197V45.5623H19.0129V55.3117C19.0129 58.6226 21.0497 60.8829 24.5132 60.8829C27.9766 60.8829 29.9738 58.6544 29.9738 55.3117V45.5623H28.1906V55.2481Z" fill="#1D1D1B"/>
<path d="M35.6406 47.1699H40.3483V60.5964H42.0919V47.1699H46.7838V45.5623H35.6406V47.1699Z" fill="#1D1D1B"/>
<path d="M62.0167 52.2635H54.0991V45.5623H52.3476V60.5964H54.0991V53.8792H62.0167V60.5964H63.7603V45.5623H62.0167V52.2635Z" fill="#1D1D1B"/>
<path d="M71.6303 53.8314H76.4728L77.0593 52.2237H71.6303V47.1699H77.725L78.3115 45.5623H69.8867V60.5964H78.1054L78.6919 58.9887H71.6303V53.8314Z" fill="#1D1D1B"/>
<path d="M91.5946 53.9826C92.421 53.6848 93.13 53.1277 93.6167 52.3938C94.1034 51.66 94.342 50.7883 94.2972 49.9077C94.3462 49.0963 94.1529 48.2886 93.742 47.5882C93.3311 46.8877 92.7214 46.3264 91.9909 45.9761C91.0941 45.6343 90.134 45.4931 89.1773 45.5623H84.6994V60.6043H86.443V54.3965H89.8906L93.2114 60.6043H95.2086L91.8958 54.4363L91.6104 53.9826H91.5946ZM92.5219 49.9475C92.5571 50.3226 92.5108 50.701 92.3862 51.0563C92.2616 51.4117 92.0616 51.7357 91.8001 52.0058C91.5386 52.276 91.2218 52.4859 90.8716 52.6211C90.5214 52.7563 90.1461 52.8135 89.7717 52.7888H86.443V47.1699H89.2566C89.9458 47.1055 90.6399 47.2235 91.2696 47.5122C91.6852 47.7588 92.0232 48.1182 92.2447 48.5489C92.4661 48.9797 92.5622 49.4644 92.5219 49.9475Z" fill="#1D1D1B"/>
<path d="M102.294 45.5623H100.542V60.5964H108.381L108.967 58.9887H102.294V45.5623Z" fill="#1D1D1B"/>
<path d="M118.383 45.5623L112.883 60.6043H114.737L116.409 55.9086H122.092L123.78 60.6043H125.674L120.126 45.5623H118.383ZM121.553 54.3169H116.956L118.835 49.1835C118.993 48.7617 119.159 48.1648 119.278 47.743C119.389 48.1648 119.564 48.7617 119.714 49.1835L121.553 54.3169Z" fill="#1D1D1B"/>
<path d="M140.566 56.3225C140.566 56.7443 140.566 57.2935 140.63 57.7073C140.376 57.2776 140.011 56.6568 139.718 56.227L132.514 45.6259L132.466 45.5623H130.834V60.6043H132.585V49.8441C132.585 49.4223 132.546 48.8731 132.514 48.4592C132.768 48.889 133.132 49.5018 133.425 49.9316L140.63 60.5327L140.677 60.6043H142.318V45.5623H140.574L140.566 56.3225Z" fill="#1D1D1B"/>
<path d="M153.612 45.5623H148.722V60.6043H153.612C158.248 60.6043 161.125 57.7153 161.125 53.0674C161.125 48.4195 158.248 45.5623 153.612 45.5623ZM150.441 47.154H153.437C157.107 47.154 159.294 49.3586 159.294 53.0515C159.294 56.7443 157.107 58.9728 153.437 58.9728H150.441V47.154Z" fill="#1D1D1B"/>
<path d="M80.0392 28.9762C78.3669 28.2599 76.9166 27.6471 76.9166 26.1429C76.9166 24.9729 78.0182 23.7553 79.849 23.7553C80.9929 23.7848 82.0911 24.2124 82.9558 24.965L83.0905 25.1003L83.7166 23.3812C82.6227 22.497 81.2529 22.0291 79.849 22.06C77.2019 22.06 75.0937 23.8667 75.0937 26.1747C75.0937 28.6817 77.2415 29.6129 79.1357 30.4327C80.8238 31.1649 82.4168 31.8493 82.4168 33.5047C82.4168 34.9214 81.2835 35.8924 79.6508 35.8924C78.255 35.8465 76.9266 35.2788 75.9259 34.3006L75.807 34.1733L75.165 35.9401C76.4063 36.9937 77.9861 37.5593 79.6112 37.5319C82.3217 37.5319 84.208 35.8287 84.208 33.3933C84.208 30.6794 81.9809 29.7323 80.0075 28.8966" fill="#1D1D1B"/>
<path d="M155.997 28.9762C154.317 28.2599 152.875 27.6471 152.875 26.1429C152.875 24.9729 153.968 23.7552 155.807 23.7552C156.949 23.7813 158.046 24.2095 158.906 24.965L159.049 25.1003L159.667 23.3812C158.572 22.4943 157.197 22.0287 155.791 22.068C153.136 22.068 151.036 23.8746 151.036 26.1826C151.036 28.6897 153.176 29.6208 155.07 30.4406C156.758 31.1728 158.359 31.8572 158.359 33.5127C158.359 34.9293 157.218 35.9003 155.593 35.9003C154.195 35.8533 152.865 35.286 151.86 34.3085L151.828 34.221L151.186 35.9878C152.429 37.0389 154.008 37.6041 155.633 37.5796C158.343 37.5796 160.229 35.8764 160.229 33.441C160.229 30.7271 158.002 29.78 156.037 28.9443" fill="#1D1D1B"/>
<path d="M8.78108 52.2158C7.10088 51.5075 5.65844 50.8867 5.65844 49.3825C5.65844 48.2126 6.75215 46.9949 8.59087 46.9949C9.73684 47.0213 10.8369 47.4525 11.6977 48.2126L11.8324 48.3479L12.4585 46.6208C11.3626 45.7403 9.99419 45.2728 8.59087 45.2997C5.94375 45.2997 3.83557 47.1143 3.83557 49.4223C3.83557 51.9214 5.98338 52.8525 7.87758 53.6723C9.56571 54.4045 11.1587 55.0969 11.1587 56.7523C11.1587 58.161 10.0175 59.14 8.39273 59.14C6.99659 59.0956 5.66762 58.5277 4.66775 57.5482L4.54094 57.4129L3.89898 59.1798C5.14344 60.2333 6.72566 60.7987 8.3531 60.7715C11.0557 60.7715 12.9499 59.0763 12.9499 56.6409C12.9499 53.919 10.7149 52.9719 8.74938 52.1363" fill="#1D1D1B"/>
</svg>
