<svg width="165" height="84" viewBox="0 0 165 84" fill="none" xmlns="http://www.w3.org/2000/svg">
<path d="M60.6699 44.9604C59.5843 45.4862 57.7597 45.852 55.4732 46.0578C55.5887 45.6691 55.7503 45.3034 55.8427 44.9147C56.0275 44.0917 56.0737 43.2687 56.1199 42.4457C57.6211 43.0172 58.9376 43.6116 59.8615 44.2289C60.231 44.4804 60.4389 44.709 60.6699 44.9604ZM52.3552 37.942C51.7547 37.782 51.2004 37.622 50.5768 37.4619C48.475 36.959 46.2809 36.5475 44.0405 36.2046L45.1029 31.1522C48.5674 32.2496 51.108 34.7643 52.3552 37.942ZM42.9319 30.7636L41.8464 35.9531C40.5992 35.7931 39.352 35.6102 38.1048 35.4959C36.5573 35.3587 35.033 35.2673 33.5548 35.2215C33.1391 35.2215 32.8157 35.2444 32.4 35.2444C34.802 32.0438 38.7746 30.3292 42.9319 30.7636ZM27.7807 38.5593C27.7345 38.7193 27.6652 38.8793 27.619 39.0394C27.4112 40.0681 27.3188 41.074 27.3188 42.0799C25.8868 41.5084 24.5934 40.9369 23.7158 40.3653C23.3693 40.1367 23.1846 39.931 22.9305 39.7023C23.9698 39.1765 25.6328 38.7879 27.7807 38.5593ZM31.4068 46.6979C31.9381 46.8351 32.4462 46.9951 33.0005 47.1094C35.0099 47.5895 37.1116 48.001 39.2596 48.321L38.3357 52.7561C35.1253 51.7502 32.7233 49.5327 31.4068 46.6979ZM32.3538 42.1028C31.7764 41.5312 32.1921 41.0283 33.5317 40.6397C34.4556 40.3882 35.7489 40.2053 37.2502 40.1138C37.9893 40.0681 38.7977 40.0681 39.6291 40.0681C40.068 40.0681 40.5068 40.1138 40.9456 40.1367L40.1141 44.0917C36.4187 43.7488 33.2776 42.9715 32.3538 42.1028ZM33.7627 44.0688C32.4924 43.7717 31.4761 43.4059 30.3675 43.063C30.3444 42.8572 30.3906 42.6514 30.3675 42.4457C32.0304 43.4287 35.6797 44.2746 39.9987 44.6632L39.8832 45.2348C37.8045 44.9147 35.7259 44.5261 33.7627 44.0688ZM33.5086 38.3764C34.9175 38.4221 36.3956 38.4907 37.8738 38.6279C38.9593 38.7193 40.0911 38.9022 41.1997 39.0394L41.0842 39.588C40.3913 39.5652 39.7215 39.4737 39.0055 39.4737C37.9431 39.4737 36.9269 39.4737 35.9799 39.5423C34.0398 39.6338 32.4 39.8624 31.2221 40.2053C30.8063 40.3196 30.6678 40.4796 30.3906 40.6168C30.4368 40.2739 30.3213 39.9767 30.3906 39.6338C30.483 39.1765 30.7832 38.8336 30.9218 38.3993C31.7764 38.3764 32.5848 38.3535 33.5086 38.3764ZM40.4606 53.2134L41.4306 48.5954C42.7702 48.7783 44.1329 48.984 45.4494 49.0983C46.9968 49.2355 48.5212 49.3269 49.9994 49.3727C50.1379 49.3727 50.2303 49.3727 50.392 49.3727C47.9438 52.1389 44.3408 53.6249 40.4606 53.2134ZM52.2397 46.2178C51.5237 46.2178 50.8308 46.2407 50.0456 46.2178C48.6367 46.1721 47.1816 46.1035 45.6804 45.9663C44.4793 45.852 43.2783 45.6691 42.0542 45.532L42.2159 44.8004C43.0474 44.8461 43.8557 44.9147 44.6872 44.9376C45.7496 44.9604 46.7659 44.9376 47.7128 44.869C49.6529 44.7775 51.2928 44.5489 52.4707 44.206C52.7709 44.1146 52.8171 44.0003 53.0481 43.9088C53.025 44.046 53.0712 44.1832 53.0481 44.3203C52.9095 45.029 52.5169 45.5777 52.2397 46.2178ZM51.362 42.3085C51.9395 42.8801 51.5237 43.383 50.1841 43.7717C49.2603 44.0231 47.99 44.206 46.4656 44.2975C45.7265 44.3432 44.9182 44.3432 44.0867 44.3432C43.5093 44.3432 42.9319 44.2746 42.3545 44.2517L43.186 40.2739C47.0661 40.6168 50.4151 41.3941 51.362 42.3085ZM43.3707 39.2908C45.5649 39.6338 47.7359 40.0224 49.7915 40.5025C51.0387 40.7997 52.0087 41.1426 53.0943 41.4627C53.0943 41.577 53.0943 41.6684 53.0943 41.7827C51.2697 40.8454 47.5743 40.0453 43.3014 39.6795L43.3707 39.2908ZM62.7947 43.9317C63.0257 43.1773 62.5868 42.3314 61.1549 41.3712C59.9077 40.5482 58.06 39.7481 55.7965 38.9708C54.711 33.9642 50.9001 29.7806 45.6804 28.3174L46.5349 24.2253C46.9737 24.111 47.3202 23.9052 47.4126 23.5851C47.5512 22.9908 46.8814 22.3506 45.9113 22.1449C44.9644 21.9391 44.0867 22.2592 43.9481 22.8307C43.8788 23.1736 44.1329 23.5166 44.5255 23.8138L44.4101 23.7909L43.5555 27.9059C37.5274 27.1515 31.8226 30.1921 29.0741 35.3358C24.1546 35.5873 21.2676 36.5932 21.1521 38.0335C21.1521 38.0106 20.7825 39.8395 20.644 40.7997C20.5285 41.5084 21.0828 42.3314 22.3993 43.2001C23.6465 44.046 25.5635 44.869 27.85 45.6234C29.1203 50.31 32.7464 54.1735 37.7121 55.6138L36.8345 59.7517C36.3494 59.8431 35.9568 60.0489 35.8875 60.4147C35.7489 61.0091 36.4187 61.6492 37.3888 61.8549C38.3357 62.0607 39.2134 61.7406 39.352 61.1691C39.4213 60.8719 39.2596 60.5518 38.9824 60.3004L39.8601 56.0939C45.6573 56.8483 51.1773 54.0821 54.0643 49.3041C59.1455 49.0755 62.2404 48.0924 62.4714 46.675C62.4483 46.6522 62.8178 43.886 62.7947 43.9317Z" fill="#0071B9"/>
<path d="M70.5552 22.8535H79.7013V24.6596H72.7493V30.2606H79.1701V32.0437H72.7493V39.6337H70.5552V22.8535Z" fill="black"/>
<path d="M84.2743 32.6611C84.2743 35.6788 86.0296 38.3993 89.1014 38.3993C92.1963 38.3993 93.9517 35.7245 93.9517 32.5239C93.9517 29.712 92.3811 26.7629 89.1245 26.7629C85.8911 26.74 84.2743 29.5519 84.2743 32.6611ZM96.0303 32.4096C96.0303 37.2791 92.8661 39.8624 88.986 39.8624C84.9903 39.8624 82.1725 36.959 82.1725 32.6839C82.1725 28.1803 85.152 25.254 89.2169 25.254C93.3512 25.254 96.0303 28.226 96.0303 32.4096Z" fill="black"/>
<path d="M98.8711 25.4827H100.719V38.1021H106.839V39.6338H98.8711V25.4827Z" fill="black"/>
<path d="M116.886 33.004H111.343V38.1021H117.533V39.6338H109.495V25.4827H117.21V27.0144H111.343V31.4952H116.886V33.004Z" fill="black"/>
<path d="M123.4 39.6338V33.6441L118.873 25.5055H120.974L122.984 29.4148C123.538 30.4892 123.954 31.358 124.416 32.341H124.462C124.855 31.4266 125.363 30.4892 125.894 29.4148L127.95 25.5055H130.051L125.247 33.6212V39.6566H123.4V39.6338Z" fill="black"/>
<path d="M72.7493 45.1205V52.1389H80.9716V45.1205H83.1888V61.9235H80.9716V54.0364H72.7493V61.9235H70.5552V45.1205H72.7493Z" fill="black"/>
<path d="M88.4317 54.9279C88.4317 57.9456 90.187 60.6661 93.2588 60.6661C96.3537 60.6661 98.109 57.9913 98.109 54.7908C98.109 51.9788 96.5385 49.0297 93.2819 49.0297C90.0484 49.0069 88.4317 51.8188 88.4317 54.9279ZM100.188 54.6765C100.188 59.5459 97.0235 62.1292 93.1433 62.1292C89.1476 62.1292 86.3299 59.2258 86.3299 54.9508C86.3299 50.4471 89.3324 47.5209 93.3743 47.5209C97.5085 47.5209 100.188 50.4928 100.188 54.6765Z" fill="black"/>
<path d="M110.142 56.0253L108.733 51.956C108.41 51.0415 108.202 50.1956 107.994 49.3726H107.948C107.74 50.2185 107.509 51.0644 107.232 51.9331L105.823 56.0253H110.142ZM105.454 57.4655L103.975 61.9235H102.058L106.909 47.7723H109.126L113.999 61.9235H112.036L110.512 57.4655H105.454Z" fill="black"/>
<path d="M127.095 61.2834C126.263 61.5806 124.624 62.0607 122.707 62.0607C120.536 62.0607 118.757 61.512 117.348 60.186C116.124 59.0201 115.362 57.1226 115.362 54.9051C115.385 50.6757 118.318 47.5895 123.099 47.5895C124.762 47.5895 126.056 47.9553 126.656 48.2296L126.217 49.7156C125.455 49.3727 124.508 49.0983 123.053 49.0983C119.566 49.0983 117.302 51.2473 117.302 54.7908C117.302 58.38 119.496 60.5061 122.822 60.5061C124.023 60.5061 124.855 60.3461 125.293 60.1174V55.8881H122.383V54.425H127.095V61.2834Z" fill="black"/>
<path d="M133.931 56.7797H134.601V61.3519H136.818V61.9235H133.931V56.7797Z" fill="black"/>
<path d="M137.581 56.7797H138.25V61.3519H140.468V61.9235H137.581V56.7797Z" fill="black"/>
<path d="M141.83 59.3174C141.969 59.3631 142.154 59.3631 142.385 59.3631C143.193 59.3631 143.678 58.9745 143.678 58.2658C143.678 57.58 143.193 57.2599 142.454 57.2599C142.154 57.2599 141.946 57.2828 141.83 57.3056V59.3174ZM141.16 56.8484C141.484 56.8027 141.9 56.757 142.454 56.757C143.124 56.757 143.609 56.917 143.909 57.1913C144.186 57.4428 144.371 57.8086 144.371 58.2658C144.371 58.723 144.232 59.0888 143.978 59.3631C143.632 59.7289 143.054 59.9347 142.385 59.9347C142.177 59.9347 141.992 59.9347 141.853 59.889V61.9465H141.184V56.8484H141.16Z" fill="black"/>
</svg>
