<svg width="165" height="83" viewBox="0 0 165 83" fill="none" xmlns="http://www.w3.org/2000/svg">
<g clip-path="url(#clip0_2297_880)">
<g clip-path="url(#clip1_2297_880)">
<path d="M120.803 37.5883L118.982 37.9075H113.303V36.9499C113.303 35.1411 113.517 33.0131 116.303 33.0131C116.732 33.0131 117.16 33.0131 117.589 33.1195L118.339 35.5667H119.089C120.16 35.5667 120.696 34.8219 120.696 33.9707C120.696 31.9491 118.124 31.8427 116.41 31.8427C112.982 31.8427 110.517 33.7579 110.517 37.4819V38.0139H108.589V38.5459L110.517 39.3971V48.2283L108.589 49.1858V49.6114H115.124V49.1858L113.517 48.3347V39.2907H118.017V48.3347L116.41 49.2922V49.7178H122.946V49.2922L121.017 48.4411L120.803 37.5883ZM90.1602 42.6955L88.553 41.8443C87.4816 41.3123 86.8387 40.8867 86.8387 40.0355C86.8387 39.1843 87.4816 38.6523 88.9816 38.6523C89.5173 38.6523 90.2673 38.7587 90.5887 38.8651L91.4459 40.7803H92.4102V38.2267C91.3388 37.9075 89.8388 37.5883 88.6602 37.5883C85.6602 37.5883 84.1602 38.9715 84.1602 40.9931C84.1602 42.3763 84.9102 43.2275 86.8387 44.2915L88.553 45.2491C89.5173 45.7811 90.053 46.2067 90.053 47.1643C90.053 48.2283 89.4102 48.7603 87.803 48.7603C87.1602 48.7603 86.303 48.5475 85.9816 48.4411L85.0173 46.5259H84.053V49.1858C85.2316 49.505 86.7316 49.9306 88.0173 49.9306C91.1245 49.9306 92.7316 48.4411 92.7316 46.3131C92.8387 44.6107 91.9816 43.6531 90.1602 42.6955ZM106.017 41.2059C106.017 38.7587 104.517 37.4819 102.696 37.4819C102.053 37.4819 101.624 37.5883 100.339 38.0139C99.6959 38.2267 99.053 38.4395 98.4102 38.7587V31.7363L93.4816 32.8003V33.2259L95.4102 33.8643V48.1219L93.4816 49.0794V49.505H100.017V49.0794L98.4102 48.2283V39.5035C99.1602 39.3971 99.803 39.3971 100.339 39.3971C102.374 39.3971 103.017 40.4611 103.017 42.2699V48.2283L101.41 49.1858V49.6114H107.732V49.1858L106.017 48.1219V41.2059ZM77.4102 37.4819C80.5173 37.4819 82.2316 39.5035 82.2316 43.1211V43.3339H74.7316C74.7316 46.5259 76.4459 48.1219 78.9102 48.1219C79.6602 48.1219 80.4102 47.9091 81.5887 47.3771L82.0173 48.1219C80.7316 49.0794 79.0173 49.8242 77.5173 49.8242C73.9816 49.8242 71.7316 47.5899 71.7316 43.8659C71.6245 40.2483 73.9816 37.4819 77.4102 37.4819ZM79.2316 41.8443C79.2316 39.2907 78.3745 38.5459 77.1959 38.5459C75.803 38.5459 74.9459 39.7163 74.8387 42.2699L79.2316 41.8443ZM66.1602 38.8651V37.4819L61.2316 38.4395V38.8651L63.1602 39.5035V48.1219L61.2316 49.0794V49.505H68.5173V49.0794L66.053 48.2283V39.7163C66.5887 39.5035 67.553 39.2907 68.4102 39.2907C68.8387 39.2907 69.2673 39.2907 69.4816 39.2907L70.2316 40.7803H71.1959V37.8011C70.553 37.5883 70.2316 37.4819 69.6959 37.4819C68.7316 37.4819 67.7673 37.8011 66.1602 38.8651ZM48.803 33.2259L50.7316 34.0771V48.1219L48.803 49.0794V49.505H56.4102V49.0794L53.8387 48.2283V41.7379H58.2316L58.9816 43.4403H59.5173V38.6523H58.9816L58.2316 40.4611H53.8387V33.8643H58.9816L60.1602 36.4179H60.803V32.8003H48.803V33.2259ZM129.053 37.4819C132.16 37.4819 133.874 39.5035 133.874 43.1211V43.3339H126.374C126.374 46.5259 128.089 48.2283 130.553 48.2283C131.303 48.2283 131.946 48.1219 133.232 47.4835L133.66 48.2283C132.267 49.1858 130.66 49.9306 129.16 49.9306C125.624 49.9306 123.374 47.6963 123.374 43.9723C123.267 40.2483 125.624 37.4819 129.053 37.4819ZM130.767 41.8443C130.66 39.2907 129.91 38.5459 128.732 38.5459C127.339 38.5459 126.482 39.7163 126.374 42.2699L130.767 41.8443ZM162.267 42.6955L160.66 41.8443C159.589 41.3123 158.946 40.8867 158.946 40.0355C158.946 39.1843 159.589 38.6523 161.089 38.6523C161.624 38.6523 162.374 38.7587 162.696 38.8651L163.553 40.6739H164.517V38.1203C163.446 37.8011 161.946 37.4819 160.767 37.4819C157.767 37.4819 156.267 38.8651 156.267 40.8867C156.267 42.2699 156.91 43.1211 158.946 44.1851L160.66 45.1427C161.732 45.6747 162.16 46.2067 162.16 47.0579C162.16 48.1219 161.517 48.6539 159.91 48.6539C159.267 48.6539 158.41 48.4411 158.089 48.3347L157.124 46.4195H156.16V49.0794C157.339 49.505 158.839 49.8242 160.124 49.8242C163.232 49.8242 164.839 48.3347 164.839 46.2067C164.946 44.6107 164.089 43.6531 162.267 42.6955ZM153.267 47.6963L155.196 48.3347V48.7603L152.303 49.505C152.089 49.6114 151.767 49.6114 151.66 49.6114C150.803 49.6114 150.482 48.973 150.374 48.4411L148.553 49.1858C147.589 49.6114 146.946 49.7178 146.089 49.7178C143.732 49.7178 141.803 47.1643 141.803 44.0787C141.803 40.1419 144.696 37.4819 148.446 37.4819C149.196 37.4819 149.732 37.5883 150.267 37.6947V33.7579L148.232 33.1195V32.6939L153.16 31.7363V47.6963H153.267ZM150.267 38.7587C149.839 38.6523 149.303 38.6523 148.874 38.6523C146.41 38.6523 144.91 40.3547 144.91 43.5467C144.91 46.1003 146.089 48.0155 148.66 48.0155C149.196 48.0155 149.624 47.9091 150.267 47.8027V38.7587ZM139.339 48.1219L141.267 48.973V49.3986H134.303V48.973L136.232 48.0155V33.8643L134.196 33.2259V32.8003L139.232 31.8427V48.1219H139.339Z" fill="#00447C"/>
<path d="M19.553 21.6284C8.73158 21.6284 -0.0541306 30.3532 -0.0541306 41.0995C-0.0541306 51.8459 8.73158 60.5706 19.553 60.5706C30.3744 60.5706 39.1602 51.8459 39.1602 41.0995C39.053 30.3532 30.2673 21.6284 19.553 21.6284ZM25.553 58.1234C23.7316 53.9739 23.1959 47.5899 23.1959 43.2275C23.1959 42.6955 23.1959 41.8443 23.1959 41.6315C24.3744 40.3547 24.5887 39.6099 24.2673 38.0139C23.9459 36.6307 23.4102 34.9284 22.2316 34.5028C21.4816 34.29 21.1602 34.1836 21.1602 34.1836C21.3744 34.1836 21.5887 34.0772 21.5887 34.0772C22.3387 33.758 22.9816 32.8004 23.4102 30.8852C23.9459 28.6508 24.6959 26.9484 26.4102 26.9484C28.0173 26.9484 30.9102 29.8212 30.9102 34.3964C30.9102 38.5459 29.303 40.5675 28.6602 45.1427C28.2316 48.1219 28.4459 50.9947 28.7673 51.8459C28.2316 50.9947 27.803 49.9307 27.4816 48.4411C26.4102 43.1211 28.3387 36.9499 28.3387 36.9499C28.3387 36.9499 26.0887 42.1635 26.8387 47.8027C26.9459 48.8667 27.1602 49.7179 27.2673 50.3563C26.7316 49.6115 26.0887 48.4411 25.6602 47.1643C24.803 44.1851 25.0173 40.8867 25.0173 40.8867C25.0173 40.8867 24.4816 44.1851 25.0173 46.6323C25.7673 50.1435 27.1602 52.3779 30.1602 53.9739C28.9816 50.3563 28.7673 46.8451 30.4816 41.7379C31.2316 39.5035 32.303 37.1627 32.303 34.29C32.303 29.502 28.553 26.2036 26.4102 26.2036C24.3744 26.2036 23.4102 27.7996 22.9816 29.2892C22.3387 28.0124 21.1602 27.0548 19.553 27.0548C17.8387 27.0548 16.7673 28.0124 16.1244 29.2892C15.6959 27.906 14.7316 26.2036 12.6959 26.2036C10.553 26.2036 6.80301 29.3956 6.80301 34.29C6.80301 37.1627 7.98158 39.6099 8.62444 41.7379C10.2316 46.8451 10.1244 50.3563 8.94587 53.9739C11.9459 52.3779 13.3387 50.2499 14.0887 46.6323C14.6244 44.1851 14.0887 40.8867 14.0887 40.8867C14.0887 40.8867 14.303 44.0787 13.4459 47.1643C13.0173 48.5475 12.3744 49.6115 11.8387 50.3563C12.053 49.7179 12.1602 48.8667 12.2673 47.8027C12.9102 42.2699 10.7673 36.9499 10.7673 36.9499C10.7673 36.9499 12.5887 43.1211 11.6244 48.4411C11.303 50.0371 10.8744 51.1011 10.3387 51.8459C10.6602 50.9947 10.8744 48.2283 10.4459 45.1427C9.69587 40.6739 8.08873 38.5459 8.08873 34.3964C8.08873 29.8212 10.9816 26.9484 12.5887 26.9484C14.303 26.9484 15.053 28.6508 15.5887 30.9916C16.1244 33.226 16.9816 34.1836 17.9459 34.1836C18.2673 34.1836 18.6959 33.758 18.6959 33.1196C18.803 33.758 19.2316 34.1836 19.9816 34.29C20.5173 34.3964 20.6244 34.3964 21.2673 34.6092C22.3387 34.822 22.7673 35.6731 23.0887 36.6307C23.4102 37.6947 23.4102 38.0139 23.4102 38.2267C23.5173 38.8651 23.5173 39.7163 23.1959 40.3547C22.4459 41.5251 21.803 42.1635 21.1602 42.6955C21.1602 42.6955 21.9102 42.5891 22.553 42.1635C22.553 44.6107 22.553 48.0155 22.9816 51.4203C22.9816 51.8459 23.0887 52.2715 23.0887 52.6971C23.0887 52.6971 23.5173 54.5059 23.5173 54.7187L22.8744 52.6971L19.3387 43.9723C20.0887 43.6531 20.303 43.1211 20.303 43.1211C20.303 43.1211 19.553 43.4403 18.803 43.4403C18.4816 43.4403 18.1602 43.3339 18.053 43.0147C17.9459 42.8019 17.8387 42.4827 17.8387 42.4827C17.8387 42.4827 17.7316 42.6955 17.8387 43.1211C17.9459 43.6531 18.1602 43.9723 18.6959 43.9723L24.2673 58.3362C22.7673 58.7618 21.1602 58.9746 19.4459 58.9746C17.7316 58.9746 16.1244 58.7618 14.6244 58.3362C14.9459 57.485 15.5887 55.2507 16.0173 51.2075C16.1244 50.4627 16.1244 49.7179 16.2316 48.9731C16.2316 49.2923 16.4459 50.2499 16.9816 51.4203C18.3744 53.9739 19.553 54.8251 19.553 54.8251C19.553 54.8251 18.6959 53.9739 17.5173 51.2075C16.2316 48.5475 16.3387 46.7387 16.4459 45.9939C16.553 42.9083 16.4459 40.2483 16.4459 39.1843C16.4459 38.8651 16.3387 38.6523 16.3387 38.6523C16.3387 38.6523 14.5173 39.9291 13.8744 39.1843C13.2316 38.3331 13.9816 36.2051 14.7316 35.4604C14.7316 35.4604 13.9816 36.0987 13.3387 36.8435C12.803 37.6947 12.2673 39.2907 13.1244 39.9291C13.8744 40.4611 14.9459 40.0355 15.803 39.5035L16.1244 39.1843L15.9102 39.7163C15.9102 39.7163 15.9102 40.9931 15.9102 43.1211C15.9102 47.3771 15.3744 53.6547 13.553 58.017C6.58873 55.5699 1.98158 48.8667 1.98158 40.9931C1.98158 30.9916 9.37444 22.9052 19.4459 22.9052C29.5173 22.9052 36.9102 30.9916 36.9102 40.9931C37.0173 48.8667 32.4102 55.5699 25.553 58.1234ZM19.4459 28.6508C18.2673 28.6508 17.303 29.7148 17.303 30.8852C17.303 31.7364 17.7316 32.3748 17.9459 32.8004C18.2673 33.226 17.9459 33.4388 17.7316 33.4388C17.5173 33.4388 16.9816 33.226 16.553 31.5236C16.4459 31.3108 16.4459 31.098 16.4459 30.7788C16.4459 28.8636 17.7316 27.4804 19.553 27.4804C21.4816 27.4804 22.6602 29.0764 22.6602 30.7788C22.6602 30.9916 22.6602 31.3108 22.553 31.5236C22.1244 33.226 21.5887 33.3324 21.3744 33.4388H21.2673C20.9459 33.3324 20.9459 33.1196 21.1602 32.8004C21.3744 32.4812 21.6959 31.7364 21.6959 30.9916C21.6959 29.7148 20.6244 28.6508 19.4459 28.6508ZM20.8387 30.8852C20.8387 31.9492 20.1959 33.1196 19.7673 33.226C19.7673 33.226 19.6602 33.226 19.4459 33.226C19.2316 33.226 19.1244 33.226 19.1244 33.226C18.803 33.1196 18.053 31.9492 18.053 30.8852C18.053 30.034 18.6959 29.3956 19.4459 29.3956C20.1959 29.3956 20.8387 30.034 20.8387 30.8852ZM13.4459 29.8212L14.5173 30.2468L12.2673 27.906V31.4172L12.9102 30.034L15.053 35.2476C15.2673 35.0348 15.3744 34.822 15.4816 34.7156L13.4459 29.8212ZM12.9102 29.3956L12.4816 28.5444L13.8744 29.9276L12.9102 29.3956ZM18.5887 42.2699L16.3387 36.5243C16.7673 36.4179 16.8744 36.0987 16.8744 35.7795C16.8744 35.1412 16.4459 34.9284 16.4459 34.9284C16.4459 34.9284 16.6602 35.2476 16.6602 35.4604C16.6602 35.6731 16.553 35.9923 16.0173 36.0987C14.9459 36.4179 14.9459 37.2691 14.9459 37.2691C14.9459 37.2691 15.053 36.8435 15.803 36.6307L18.1602 42.3763C18.053 42.3763 18.3744 42.2699 18.5887 42.2699Z" fill="#00447C"/>
</g>
</g>
<defs>
<clipPath id="clip0_2297_880">
<rect width="165" height="82.7372" fill="white"/>
</clipPath>
<clipPath id="clip1_2297_880">
<rect width="166.289" height="40.0758" fill="white" transform="translate(-0.644531 21.3307)"/>
</clipPath>
</defs>
</svg>
