<svg width="165" height="84" viewBox="0 0 165 84" fill="none" xmlns="http://www.w3.org/2000/svg">
<path d="M140.552 40.813C140.552 39.5203 140.552 38.0659 140.77 37.5272C140.879 37.2579 141.152 37.204 141.48 37.1502L141.862 37.0424C141.971 36.9347 141.971 36.6654 141.807 36.5577C141.207 36.6115 140.77 36.6115 140.061 36.6115C139.406 36.6115 138.806 36.6115 138.151 36.5577C137.987 36.6115 137.987 36.9347 138.096 37.0424L138.478 37.0963C138.915 37.1502 139.188 37.2579 139.297 37.5272C139.624 38.012 139.624 39.5741 139.624 40.813V44.0449C139.624 44.3143 139.624 44.3681 139.57 44.422C139.406 44.3143 137.824 42.5367 137.114 41.7826L135.422 40.005C134.822 39.3587 133.021 37.2579 132.694 36.5577C132.312 36.6115 131.875 36.6115 131.548 36.6115C131.111 36.6115 130.184 36.6115 129.583 36.5577C129.42 36.6115 129.42 36.9347 129.529 37.0424L129.802 37.0963C130.02 37.1502 130.511 37.2579 130.675 37.4195C131.221 37.9043 131.221 38.1736 131.221 39.4664V43.3986C131.221 44.6913 131.221 46.1457 131.002 46.6843C130.893 46.9537 130.566 47.0075 130.238 47.0614L129.856 47.1691C129.747 47.2769 129.747 47.5462 129.911 47.6539C130.511 47.6 130.948 47.6 131.657 47.6C132.312 47.6 132.967 47.6 133.567 47.6539C133.731 47.6 133.731 47.2769 133.622 47.1691L133.24 47.1153C132.803 47.0614 132.53 46.9537 132.367 46.6843C132.094 46.1996 132.039 44.6375 132.039 43.3986V40.1666C132.039 39.3048 132.039 39.0893 132.094 39.0893C132.367 39.3587 132.912 39.9512 134.004 41.1901L137.933 45.607C139.133 46.9537 139.624 47.5462 139.897 47.8694C140.115 47.8694 140.334 47.8155 140.443 47.6539C140.388 47.2769 140.497 45.2126 140.497 44.7278L140.552 40.813ZM127.401 40.813C127.401 39.5203 127.401 38.0659 127.619 37.5272C127.728 37.2579 128.001 37.204 128.328 37.1502L128.71 37.0424C128.819 36.9347 128.819 36.6654 128.656 36.5577C128.055 36.6115 127.619 36.6115 126.909 36.6115C126.255 36.6115 125.654 36.6115 125 36.5577C124.836 36.6115 124.836 36.9347 124.945 37.0424L125.327 37.0963C125.764 37.1502 126.036 37.2579 126.146 37.5272C126.473 38.012 126.473 39.5741 126.473 40.813V44.0449C126.473 44.3143 126.473 44.3681 126.418 44.422C126.255 44.3143 124.672 42.5367 123.963 41.7826L122.271 40.005C121.671 39.3587 119.87 37.2579 119.542 36.5577C119.16 36.6115 118.724 36.6115 118.397 36.6115C117.96 36.6115 117.032 36.6115 116.432 36.5577C116.268 36.6115 116.268 36.9347 116.377 37.0424L116.65 37.0963C116.869 37.1502 117.36 37.2579 117.523 37.4195C118.069 37.9043 118.069 38.1736 118.069 39.4664V43.3986C118.069 44.6913 118.069 46.1457 117.851 46.6843C117.742 46.9537 117.414 47.0075 117.087 47.0614L116.705 47.1691C116.596 47.2769 116.596 47.5462 116.759 47.6539C117.36 47.6 117.796 47.6 118.506 47.6C119.161 47.6 119.815 47.6 120.416 47.6539C120.579 47.6 120.579 47.2769 120.47 47.1691L120.088 47.1153C119.652 47.0614 119.379 46.9537 119.215 46.6843C118.942 46.1996 118.888 44.6375 118.888 43.3986V40.1666C118.888 39.3048 118.888 39.0893 118.942 39.0893C119.215 39.3587 119.761 39.9512 120.852 41.1901L124.781 45.607C125.982 46.9537 126.473 47.5462 126.746 47.8694C126.964 47.8694 127.182 47.8155 127.291 47.6539C127.237 47.2769 127.327 45.229 127.327 44.7442L127.401 40.813ZM105.354 43.2908C105.354 44.9606 105.845 46.1457 106.609 46.8459C107.373 47.6 108.519 47.9232 110.102 47.9232C111.248 47.9232 112.503 47.6 113.376 46.6843C114.249 45.7686 114.467 44.3681 114.467 42.8599V40.8669C114.467 39.5741 114.467 38.1198 114.686 37.5811C114.795 37.3118 115.122 37.2579 115.45 37.204L115.832 37.0963C115.941 36.9886 115.941 36.7193 115.777 36.6115C115.177 36.6654 114.686 36.6654 113.976 36.6654C113.321 36.6654 112.667 36.6654 112.121 36.6115C111.957 36.6654 111.957 36.9347 112.066 37.0963L112.394 37.1502C112.83 37.204 113.103 37.3118 113.212 37.5811C113.54 38.0659 113.54 39.628 113.54 40.8669V42.9676C113.54 45.4993 112.612 47.1153 110.429 47.1153C108.083 47.1153 107.373 45.1761 107.373 42.9138V39.0893C107.373 37.3118 107.537 37.2579 108.301 37.1502L108.683 37.0963C108.792 36.9886 108.792 36.7193 108.628 36.6115C107.864 36.6654 107.155 36.6654 106.391 36.6654C105.627 36.6654 104.918 36.6654 104.208 36.6115C104.099 36.6654 104.045 36.9347 104.154 37.0963L104.427 37.1502C105.19 37.2579 105.354 37.3118 105.354 39.0893V43.2908ZM94.3856 38.7123C94.3856 37.9582 94.3856 37.5811 94.4947 37.4734C94.6039 37.3656 95.1496 37.2579 95.859 37.2579C98.6421 37.2579 100.607 38.8739 100.607 42.1597C100.607 44.9606 99.2423 47.0614 96.241 47.0614C94.4401 47.0614 94.331 46.1996 94.331 44.5836V38.7123H94.3856ZM92.4756 45.23C92.4756 47.0075 92.3119 47.0614 91.5479 47.1153L91.1659 47.1691C91.0568 47.2769 91.0568 47.6 91.2205 47.6539C91.9845 47.6 92.6939 47.6 93.3487 47.6C93.949 47.6 94.7676 47.7078 95.8044 47.7078C97.3324 47.7078 98.8058 47.4923 99.9518 46.8998C102.025 45.8764 102.953 43.9372 102.953 42.1058C102.953 39.628 101.534 37.8504 99.5152 37.1502C98.2601 36.7193 97.1687 36.6115 95.5316 36.6115C93.8944 36.6115 92.5302 36.6654 91.3296 36.7731C91.2205 36.8808 91.2205 37.1502 91.3296 37.2579L91.6571 37.3118C92.4211 37.3656 92.4756 37.635 92.4756 39.1971V45.23ZM84.4538 40.813C84.4538 39.5203 84.4538 38.0659 84.6721 37.5272C84.7812 37.2579 85.0541 37.204 85.3815 37.1502L85.7635 37.0424C85.8726 36.9347 85.8726 36.6654 85.7089 36.5577C85.1086 36.6115 84.6721 36.6115 83.9627 36.6115C83.3078 36.6115 82.7075 36.6115 82.0527 36.5577C81.889 36.6115 81.889 36.9347 81.9981 37.0424L82.3801 37.0963C82.8167 37.1502 83.0895 37.2579 83.1987 37.5272C83.5261 38.012 83.5261 39.5741 83.5261 40.813V44.0449C83.5261 44.3143 83.5261 44.3681 83.4715 44.422C83.3078 44.3143 81.7253 42.5367 81.0159 41.7826L79.3242 40.005C78.7239 39.3587 76.9231 37.2579 76.5957 36.5577C76.2137 36.6115 75.7771 36.6115 75.4497 36.6115C75.0131 36.6115 74.0854 36.6115 73.4852 36.5577C73.3214 36.6115 73.3214 36.9347 73.4306 37.0424L73.7034 37.0963C73.9217 37.1502 74.4129 37.2579 74.5766 37.4195C75.1223 37.9043 75.1223 38.1736 75.1223 39.4664V43.3986C75.1223 44.6913 75.1223 46.1457 74.904 46.6843C74.7948 46.9537 74.4674 47.0075 74.14 47.0614L73.758 47.1691C73.6489 47.2769 73.6489 47.5462 73.8126 47.6539C74.4129 47.6 74.8494 47.6 75.5588 47.6C76.2137 47.6 76.8685 47.6 77.4688 47.6539C77.6325 47.6 77.6325 47.2769 77.5234 47.1691L77.1414 47.1153C76.7048 47.0614 76.432 46.9537 76.2682 46.6843C75.9954 46.1996 75.9408 44.6375 75.9408 43.3986V40.1666C75.9408 39.3048 75.9408 39.0893 75.9954 39.0893C76.2682 39.3587 76.8139 39.9512 77.9053 41.1901L81.8344 45.607C83.035 46.9537 83.5261 47.5462 83.799 47.8694C84.0172 47.8694 84.2355 47.8155 84.3447 47.6539C84.2901 47.2769 84.3942 45.2092 84.3942 44.7244L84.4538 40.813ZM66.391 37.0424C69.065 37.0424 70.2109 39.9512 70.2109 42.4828C70.2109 45.8225 68.683 47.223 66.7184 47.223C63.8262 47.223 62.8439 44.0988 62.8439 41.7826C62.8985 38.2813 64.6993 37.0424 66.391 37.0424ZM66.6093 36.3961C63.0622 36.3961 60.6066 38.9277 60.6066 42.2674C60.6066 45.23 62.7894 47.8694 66.6093 47.8694C69.9927 47.8694 72.5575 45.4454 72.5575 42.1597C72.5029 39.1432 70.4838 36.3961 66.6093 36.3961ZM55.3132 47.8694C57.7689 47.8694 59.2423 46.5227 59.2423 44.6375C59.2423 42.9676 58.0418 41.9442 56.9504 41.3517L55.9135 40.813C54.8221 40.2205 54.331 39.4664 54.331 38.7661C54.331 37.9043 54.8767 37.0424 56.2409 37.0424C57.6598 37.0424 58.26 38.1736 58.5329 39.0355C58.6966 39.1432 58.9695 39.1432 59.0786 38.9816C59.0786 38.2275 58.9149 37.0963 58.7512 36.7193C57.9872 36.5577 57.3324 36.3961 56.4592 36.3961C54.0036 36.3961 52.7484 37.7966 52.7484 39.4125C52.7484 40.9207 53.8398 41.9442 55.095 42.6444L55.8044 43.0215C57.0595 43.7217 57.4961 44.4759 57.4961 45.4454C57.4961 46.4689 56.7866 47.223 55.477 47.223C53.8398 47.223 52.9122 45.4454 52.6393 44.5836C52.5302 44.4759 52.2027 44.4759 52.0936 44.6375C52.0936 45.6609 52.3119 46.7921 52.5847 47.1691C52.8576 47.3846 53.7307 47.8694 55.3132 47.8694ZM44.7812 37.9582C44.7812 37.3118 44.8357 37.2579 45.6543 37.2579C46.6911 37.2579 47.7825 37.8504 47.7825 39.3048C47.7825 40.813 47.0731 41.4055 45.4906 41.4055C44.8357 41.4055 44.7812 41.4055 44.7812 40.9746V37.9582ZM44.7812 42.4828C44.7812 42.1597 44.8357 42.0519 45.5452 42.0519C47.4006 42.0519 48.6011 43.0754 48.6011 44.7991C48.6011 46.2534 47.5643 47.0075 46.4183 47.0075C44.9449 47.0075 44.7812 46.415 44.7812 44.9068V42.4828ZM42.9804 45.23C42.9804 47.0075 42.7075 47.0614 41.9435 47.1153L41.5615 47.1691C41.4524 47.2769 41.4524 47.6 41.6161 47.6539C42.3801 47.6 43.1441 47.6 43.9081 47.6C44.5629 47.6 45.2723 47.6539 45.9817 47.6539C47.8917 47.6539 49.0377 47.3846 49.8016 46.7382C50.5656 46.1457 50.8385 45.2838 50.8385 44.5297C50.8385 42.6444 49.4197 41.8365 48.11 41.621C48.0008 41.5671 48.0008 41.5671 48.0008 41.5133C48.0008 41.4594 48.0554 41.4055 48.11 41.4055C49.3105 41.0285 50.0199 40.2744 50.0199 39.3048C50.0199 38.2813 49.6379 37.5811 48.8194 37.1502C48.0554 36.7193 46.9094 36.6115 45.5452 36.6115C43.6898 36.6115 42.4892 36.7193 41.7252 36.7731C41.6161 36.8808 41.6161 37.0963 41.7252 37.2579L42.1618 37.3118C42.9258 37.4195 42.9804 37.5811 42.9804 39.1971V45.23ZM38.833 39.0355C38.833 37.2579 38.9967 37.204 39.7607 37.1502L40.1427 37.0963C40.2518 36.9886 40.2518 36.6654 40.0881 36.6115C39.3241 36.6654 38.6147 36.6654 37.8507 36.6654C37.0868 36.6654 36.3228 36.6654 35.5588 36.6115C35.4497 36.6654 35.3951 36.9886 35.5042 37.0963L35.8862 37.1502C36.6502 37.2579 36.8139 37.3118 36.8139 39.0355V45.23C36.8139 47.0075 36.6502 47.0614 35.8862 47.1153L35.5042 47.1691C35.3951 47.2769 35.3951 47.6 35.5588 47.6539C36.3228 47.6 37.0868 47.6 37.8507 47.6C38.6147 47.6 39.3241 47.6 40.0881 47.6539C40.1973 47.6 40.2518 47.2769 40.1427 47.1691L39.7607 47.1153C38.9967 47.0614 38.833 47.0075 38.833 45.23V39.0355ZM33.4306 44.9068C33.4306 43.8833 33.5397 43.7756 34.14 43.6679L34.4674 43.614C34.6311 43.5063 34.5765 43.237 34.4128 43.1292C33.7034 43.1831 33.1031 43.1831 32.3391 43.1831C31.1932 43.1831 30.3746 43.1831 29.7198 43.1292C29.6106 43.237 29.6106 43.5063 29.7198 43.614L30.32 43.7217C31.466 43.8833 31.466 43.9911 31.466 45.1761V45.7686C31.466 46.3611 31.4115 46.6843 31.3023 46.7921C31.084 47.0614 30.5929 47.1691 29.8289 47.1691C28.8466 47.1691 27.4824 46.8459 26.5547 45.7686C25.627 44.6913 25.3541 43.2908 25.3541 41.9442C25.3541 39.1432 26.773 36.9886 29.7198 36.9886C31.4115 36.9886 32.5574 37.7966 32.9394 39.4125C33.0486 39.5741 33.376 39.5203 33.4851 39.3587C33.376 38.0659 33.2668 37.204 33.2668 36.7193C33.0486 36.7193 32.5574 36.6654 32.1754 36.5577C31.5752 36.4499 30.702 36.2883 29.9381 36.2883C27.5915 36.2883 25.7907 36.9886 24.5902 38.2275C23.5533 39.3048 23.0622 40.7592 23.0622 42.1058C23.0622 43.5063 23.5533 44.9068 24.5356 45.9302C25.7907 47.223 27.7007 47.7616 29.7198 47.7616C30.702 47.7616 31.9572 47.5462 32.994 47.3307C33.3214 47.2769 33.5943 47.223 33.8125 47.223C33.8671 47.1691 33.8671 47.0614 33.8125 46.9537C33.4851 46.7921 33.4306 46.3611 33.4306 45.7686V44.9068Z" fill="#327FBD"/>
</svg>
