<svg width="165" height="84" viewBox="0 0 165 84" fill="none" xmlns="http://www.w3.org/2000/svg">
<g clip-path="url(#clip0_2297_1040)">
<rect x="40.7914" y="54.0508" width="83.4175" height="29.4236" fill="#880016"/>
<path d="M71.5467 74.0953C71.5467 74.522 71.382 74.7285 71.0525 74.7285C70.7231 74.7285 70.5584 74.522 70.5584 74.0953V73.6135H68.774V73.9852C68.774 75.403 69.6525 76.2703 71.0937 76.2703C71.8075 76.2703 72.4526 76.05 72.8781 75.637C73.2762 75.2791 73.386 74.9212 73.386 74.054V70.1997H71.5467V74.0953ZM79.1235 73.4621C79.1235 72.8289 78.945 72.4297 78.547 72.1544C78.1352 71.8653 77.5862 71.7139 76.8998 71.7139C76.1037 71.7139 75.4586 71.9204 75.0743 72.2783C74.7998 72.5536 74.6625 72.8564 74.6213 73.3657H76.1998V73.2969C76.1998 72.9528 76.4469 72.7601 76.8587 72.7601C77.2155 72.7601 77.4352 72.8977 77.4352 73.118C77.4352 73.2831 77.2842 73.3795 76.941 73.4346L75.6508 73.6686C74.8135 73.8338 74.4017 74.233 74.4017 74.9488C74.4017 75.6921 75.0331 76.2014 75.9527 76.2014C76.5018 76.2014 76.8587 76.0638 77.4352 75.6508C77.4763 75.8435 77.5038 75.9399 77.5862 76.0913H79.2607C79.1509 75.8986 79.1235 75.7747 79.1235 75.4581V73.4621ZM77.4626 74.4257C77.4626 74.9075 77.0783 75.2654 76.5567 75.2654C76.2684 75.2654 76.0626 75.1277 76.0626 74.9075C76.0626 74.7973 76.1175 74.701 76.2273 74.6322C76.3234 74.5771 76.3234 74.5771 76.7214 74.4532L77.4626 74.2054V74.4257ZM83.0354 71.7139C82.5138 71.7139 82.1569 71.8515 81.7863 72.2094V71.824H80.1529V77.4679H81.8824V75.7609C82.2393 76.0775 82.6236 76.229 83.1178 76.229C84.2982 76.229 85.0669 75.3617 85.0669 74.0127C85.0669 72.6224 84.2845 71.7139 83.0354 71.7139ZM82.5824 74.9625C82.0883 74.9625 81.8138 74.6046 81.8138 73.9577C81.8138 73.352 82.102 72.9803 82.5824 72.9803C83.0491 72.9803 83.3374 73.3382 83.3374 73.9714C83.3374 74.6046 83.0491 74.9625 82.5824 74.9625ZM90.4475 73.4621C90.4475 72.8289 90.269 72.4297 89.871 72.1544C89.4592 71.8653 88.8964 71.7139 88.2101 71.7139C87.414 71.7139 86.7689 71.9204 86.3846 72.2783C86.11 72.5536 85.9728 72.8564 85.9316 73.3657H87.5101V73.2969C87.5101 72.9528 87.7572 72.7601 88.1689 72.7601C88.5258 72.7601 88.7454 72.8977 88.7454 73.118C88.7454 73.2831 88.5944 73.3795 88.2513 73.4346L86.961 73.6686C86.1238 73.8338 85.712 74.233 85.712 74.9488C85.712 75.6921 86.3434 76.2014 87.263 76.2014C87.8121 76.2014 88.1689 76.0638 88.7454 75.6508C88.7866 75.8435 88.8141 75.9399 88.8964 76.0913H90.571C90.4612 75.8986 90.4337 75.7747 90.4337 75.4581V73.4621H90.4475ZM88.7866 74.4257C88.7866 74.9075 88.4023 75.2654 87.8807 75.2654C87.5924 75.2654 87.3866 75.1277 87.3866 74.9075C87.3866 74.7973 87.4415 74.701 87.5513 74.6322C87.6474 74.5771 87.6474 74.5771 88.0454 74.4532L88.7866 74.2054V74.4257ZM94.428 71.7139C93.8653 71.7139 93.4809 71.8928 93.1103 72.3333V71.824H91.4769V76.1188H93.2064V73.7787C93.2064 73.352 93.4123 73.118 93.7966 73.118C94.181 73.118 94.3731 73.352 94.3731 73.7787V76.1188H96.1026V73.4621C96.1026 72.8702 95.9516 72.4434 95.6222 72.1544C95.3202 71.8653 94.9084 71.7139 94.428 71.7139ZM69.1858 64.3218L68.074 59.7929H64.6837V68.245H66.9896V65.5882C66.9759 63.7299 66.9759 63.7023 66.9622 63.0829L68.1975 68.2312H70.1741L71.4094 63.0829L71.382 64.5833V68.2312H73.6879V59.7929H70.2976L69.1858 64.3218ZM83.7354 64.074C83.7354 61.3897 82.0059 59.6002 79.398 59.6002C76.8312 59.6002 75.0606 61.4035 75.0606 64.0052C75.0606 66.6206 76.8312 68.4239 79.398 68.4239C81.9373 68.4239 83.7354 66.6344 83.7354 64.074ZM79.4117 66.3178C78.3548 66.3178 77.6822 65.423 77.6822 64.0189C77.6822 62.6286 78.3548 61.7201 79.398 61.7201C80.4549 61.7201 81.1275 62.6149 81.1275 64.0327C81.1275 65.4093 80.4412 66.3178 79.4117 66.3178ZM87.5238 62.0367H91.724V59.7929H84.9982V68.245H87.5238V65.2578H90.9553V63.1517H87.5238V62.0367ZM97.283 59.7929H94.6339L91.6416 68.245H94.2496L94.6339 67.0749H97.283L97.6536 68.245H100.317L97.283 59.7929ZM95.2241 65.2165L95.9653 62.7938L96.7066 65.2165H95.2241Z" fill="white"/>
<path d="M81.4005 0.737183C81.4005 5.36112 81.4005 9.86818 81.4005 14.4014C76.0738 14.7827 71.7136 16.9909 68.5455 21.3581C66.3976 24.3197 65.4019 27.6673 65.5477 31.3148C65.8867 39.7754 72.7231 46.5244 81.3928 46.9135C81.3928 47.3471 81.3928 47.7823 81.3928 48.2882C75.4877 47.9422 70.6013 45.5464 66.8349 40.9932C61.9883 35.1345 60.8377 26.737 64.5919 19.3559C64.0948 19.1053 63.5977 18.8546 63.0561 18.5809C62.9181 18.8577 62.7754 19.1237 62.6511 19.3975C61.0908 22.8373 60.4373 26.4448 60.8147 30.203C61.4176 36.2109 64.1071 41.1147 68.7986 44.896C71.7918 47.3087 75.2223 48.7541 79.0133 49.3385C79.6975 49.4446 80.3925 49.4969 81.086 49.5368C81.356 49.5522 81.4296 49.6306 81.4204 49.8951C81.4005 50.4779 81.4143 51.0607 81.4143 51.7158C73.6636 51.2868 67.2506 48.1867 62.4302 42.1219C56.0848 34.1381 54.997 23.5293 59.6533 14.6613C64.2267 5.9516 71.6261 1.49374 81.4005 0.737183ZM69.1607 13.388C70.8575 12.3178 72.5083 11.2783 74.176 10.2265C73.9995 9.87126 73.7786 9.40841 73.5362 8.96093C73.5009 8.8948 73.3291 8.83483 73.2616 8.86559C71.3883 9.72671 69.6593 10.8185 68.0776 12.1901C68.4688 12.6207 68.8508 13.0451 69.1607 13.388Z" fill="black"/>
<path d="M90.2991 2.1134C92.7324 2.93762 94.9585 4.08015 97.0066 5.56559C100.999 8.46266 103.946 12.1901 105.788 16.7725C107.453 20.9151 107.979 25.2131 107.39 29.6417C106.641 35.2759 104.251 40.1275 100.281 44.1594C96.508 47.9898 91.9438 50.3933 86.637 51.3129C85.5539 51.5005 84.4477 51.5574 83.3539 51.685C83.1283 51.7111 83.047 51.6527 83.0547 51.4128C83.0716 50.89 83.0716 50.3672 83.0547 49.8443C83.047 49.6121 83.1283 49.5537 83.3492 49.5414C87.5667 49.3231 91.416 48.0083 94.8404 45.5372C98.8768 42.6247 101.675 38.785 102.959 33.9535C104.895 26.6662 103.377 20.0955 98.5424 14.3322C96.37 11.7426 93.6483 9.85892 90.5339 8.5457C90.425 8.49957 90.2884 8.34272 90.2884 8.23662C90.2731 6.25757 90.2777 4.28006 90.2792 2.30101C90.2777 2.25487 90.2884 2.20567 90.2991 2.1134Z" fill="black"/>
<path d="M83.1021 0.754028C84.2589 0.890886 85.4049 1.00468 86.5418 1.17075C87.2153 1.26917 87.8765 1.45984 88.5469 1.58747C88.8492 1.64591 88.9474 1.77354 88.9458 2.09492C88.929 4.56604 88.9412 7.03563 88.9305 9.50675C88.929 9.76355 89.0103 9.87119 89.2496 9.96499C93.8476 11.7518 97.3655 14.7888 99.7312 19.136C101.732 22.8127 102.444 26.7523 101.954 30.8934C101.526 34.5132 100.172 37.7747 97.9132 40.641C94.7957 44.5961 90.747 47.0272 85.8161 47.9775C84.9278 48.1482 84.0165 48.2036 83.0622 48.3189C83.0622 47.8376 83.0469 47.4193 83.0791 47.0072C83.0837 46.9457 83.3123 46.8642 83.4411 46.855C85.2668 46.7058 87.0358 46.3014 88.7019 45.5433C94.1283 43.0706 97.4882 38.9234 98.4456 32.9986C99.1452 28.6637 98.1111 24.6687 95.4999 21.1335C92.7353 17.3891 88.975 15.2748 84.4092 14.5566C84.0472 14.4997 83.6743 14.509 83.3123 14.4521C83.2187 14.4382 83.0699 14.2937 83.0699 14.2091C83.0591 9.79123 83.0607 5.37181 83.0622 0.953932C83.0622 0.923178 83.0729 0.893961 83.1021 0.754028Z" fill="black"/>
</g>
<defs>
<clipPath id="clip0_2297_1040">
<rect width="165" height="82.7372" fill="white" transform="translate(0 0.737183)"/>
</clipPath>
</defs>
</svg>
