<svg width="165" height="83" viewBox="0 0 165 83" fill="none" xmlns="http://www.w3.org/2000/svg">
<path d="M88.0386 37.1473C88.1405 37.1747 88.2279 37.1885 88.3298 37.2159C89.145 37.4077 89.6253 37.9148 89.9019 38.6549C89.5089 38.8331 89.1158 38.9976 88.7374 39.1757C88.65 39.0387 88.5918 38.9153 88.5045 38.792C88.3443 38.559 88.1405 38.4219 87.8494 38.3671C87.1798 38.2712 86.6266 38.792 86.7722 39.4087C86.8159 39.5869 86.8887 39.7514 86.976 39.9158C87.107 40.1214 87.2526 40.327 87.4127 40.5189C87.9659 41.1904 89.1595 42.6021 89.1595 42.6021C89.1595 42.6021 89.6108 41.6016 89.8291 41.1082C90.2804 41.1082 90.7316 41.1082 91.212 41.1082C91.0373 41.5468 90.8627 41.958 90.6734 42.3691C90.4842 42.7803 90.2658 43.1777 90.0475 43.6026C90.557 44.1782 91.605 45.398 91.605 45.398C91.605 45.398 90.4842 45.4117 90.0038 45.4117C89.9019 45.4117 89.8437 45.3843 89.7855 45.3158C89.6399 45.1239 89.4798 44.9457 89.3342 44.7539C89.3051 44.7127 89.2614 44.6716 89.2177 44.6168C89.1741 44.6716 89.1158 44.7127 89.0722 44.7539C88.6209 45.2061 88.0678 45.4803 87.4127 45.5351C87.3836 45.5351 87.3545 45.5488 87.3108 45.5625C87.1216 45.5625 86.9323 45.5625 86.7577 45.5625C86.6412 45.5351 86.5247 45.5214 86.4083 45.494C85.3165 45.2884 84.5159 44.466 84.3995 43.4518C84.283 42.4239 84.8362 41.4783 85.826 41.0123C85.8843 40.9849 85.9279 40.9575 86.0007 40.93C85.957 40.8752 85.9279 40.8204 85.8988 40.7656C85.7096 40.4778 85.5349 40.1762 85.4621 39.8473C85.1419 38.6549 85.8406 37.4214 87.3399 37.1885C87.3836 37.1747 87.4418 37.161 87.4855 37.1473C87.6747 37.1473 87.864 37.1473 88.0386 37.1473ZM88.3298 43.6848C87.8057 43.0544 87.2817 42.4239 86.7577 41.8072C86.4665 41.8894 86.2627 42.0402 86.1026 42.2732C85.8697 42.6158 85.8115 42.9996 85.8843 43.3833C86.0298 44.0686 86.6266 44.4523 87.3545 44.3427C87.8057 44.2742 88.0823 44.0275 88.3298 43.6848Z" fill="black"/>
<path d="M161.929 45.59C161.841 45.5763 161.754 45.5626 161.652 45.5489C160.677 45.3981 159.949 44.9184 159.41 44.1509C159.061 43.6575 158.857 43.1093 158.755 42.52C158.58 41.588 158.61 40.6423 158.886 39.7241C159.032 39.217 159.279 38.7373 159.629 38.3261C160.167 37.6819 160.866 37.2982 161.739 37.1885C161.783 37.1885 161.841 37.1611 161.885 37.1611C162.103 37.1611 162.322 37.1611 162.554 37.1611C162.598 37.1748 162.642 37.1885 162.685 37.2022C162.977 37.2434 163.253 37.3256 163.515 37.4352C164.185 37.7505 164.636 38.2439 164.956 38.8606C164.956 38.8743 164.956 38.888 164.956 38.9154C164.578 39.0799 164.214 39.2581 163.835 39.4225C163.763 39.3129 163.704 39.2032 163.632 39.1073C163.399 38.8058 163.122 38.5454 162.729 38.4357C162.03 38.2439 161.419 38.4083 160.924 38.9154C160.648 39.1895 160.473 39.5322 160.356 39.8885C160.08 40.7657 160.065 41.6565 160.269 42.5474C160.371 42.9859 160.56 43.3971 160.866 43.7535C161.681 44.6991 162.977 44.425 163.588 43.8768C163.646 43.822 163.675 43.7672 163.675 43.6712C163.675 43.2464 163.675 42.8352 163.675 42.4103C163.675 42.3692 163.661 42.3281 163.661 42.2733C163.049 42.2596 162.438 42.2733 161.841 42.2733C161.812 41.9306 161.827 41.2042 161.856 41.0809C161.914 41.0809 161.987 41.0809 162.045 41.0809C162.773 41.0809 163.515 41.0809 164.243 41.0809C164.491 41.0809 164.738 41.0809 165 41.0809C165 42.1773 165 43.2738 165 44.3702C164.461 44.9595 163.806 45.3433 162.991 45.5078C162.831 45.5352 162.671 45.5626 162.511 45.59C162.322 45.59 162.118 45.59 161.929 45.59Z" fill="black"/>
<path d="M100.834 45.5899C100.688 45.5625 100.543 45.5488 100.412 45.5214C99.6257 45.398 98.956 45.0828 98.3738 44.5483C98.6067 44.2056 98.8542 43.8493 99.1016 43.493C99.1453 43.5341 99.189 43.5752 99.2326 43.6163C99.8149 44.1508 100.514 44.4249 101.329 44.3838C101.576 44.3701 101.795 44.3153 102.013 44.1919C102.61 43.8493 102.726 43.0818 102.246 42.6021C102.057 42.4239 101.838 42.2869 101.605 42.1772C101.314 42.0402 101.023 41.9305 100.732 41.8072C100.368 41.6564 100.004 41.492 99.6693 41.2727C99.189 40.9575 98.8396 40.56 98.7086 40.0118C98.3883 38.7372 99.1598 37.5585 100.528 37.2433C100.688 37.2022 100.848 37.1747 101.023 37.1473C101.271 37.1473 101.518 37.1473 101.751 37.1473C101.867 37.1747 101.984 37.1885 102.1 37.2159C102.697 37.3118 103.236 37.5311 103.702 37.9148C103.745 37.956 103.789 37.9971 103.847 38.0519C103.614 38.3945 103.396 38.7235 103.163 39.0661C103.119 39.025 103.076 38.9976 103.046 38.9702C102.552 38.559 101.955 38.3671 101.3 38.3671C101.081 38.3671 100.892 38.4082 100.688 38.4905C100.077 38.7509 99.8731 39.5732 100.455 40.0118C100.63 40.1351 100.819 40.2585 101.009 40.3407C101.445 40.5463 101.897 40.7245 102.333 40.93C102.653 41.0808 102.959 41.259 103.236 41.492C103.731 41.9031 103.978 42.4239 104.007 43.0407C104.036 43.5067 103.949 43.9452 103.716 44.3564C103.367 44.9731 102.799 45.3295 102.086 45.494C101.926 45.5351 101.765 45.5488 101.605 45.5625C101.562 45.5625 101.533 45.5762 101.489 45.5899C101.271 45.5899 101.052 45.5899 100.834 45.5899Z" fill="black"/>
<path d="M3.33348 37.1473C3.50816 37.1747 3.69739 37.2022 3.87207 37.2433C4.39611 37.3529 4.87648 37.5585 5.28407 37.8874C5.32774 37.9148 5.35685 37.956 5.40052 37.9834C5.41508 37.9971 5.41508 38.0108 5.44419 38.0382C5.22584 38.3671 5.00749 38.7098 4.77459 39.0524C4.73092 39.0113 4.7018 38.9976 4.67269 38.9702C4.17776 38.5453 3.58094 38.3671 2.91133 38.3534C2.67843 38.3534 2.44552 38.4082 2.24173 38.5042C1.70313 38.7646 1.49934 39.5458 2.06705 39.9844C2.27084 40.1488 2.50375 40.2722 2.75121 40.3818C3.04234 40.5052 3.31892 40.6285 3.61005 40.7519C3.95941 40.9026 4.29422 41.0671 4.61446 41.2864C5.03661 41.5879 5.38597 41.9442 5.53153 42.4376C5.779 43.3148 5.66254 44.1234 4.99294 44.8087C4.59991 45.2198 4.09042 45.4117 3.52271 45.5214C3.3917 45.5488 3.26069 45.5625 3.12968 45.5899C2.91133 45.5899 2.69298 45.5899 2.46008 45.5899C2.31451 45.5625 2.16894 45.5488 2.00882 45.5214C1.28099 45.4117 0.640493 45.1239 0.101897 44.6579C0.0727833 44.6168 0.0291133 44.5757 0 44.5483C0.145567 44.2742 0.640493 43.5889 0.756946 43.493C0.771503 43.5067 0.78606 43.5341 0.800616 43.5478C0.815173 43.5615 0.82973 43.5752 0.844286 43.5889C1.23732 43.9589 1.70313 44.2056 2.24173 44.3153C2.63476 44.3975 3.04234 44.4112 3.42082 44.2742C3.75562 44.1508 4.00308 43.9315 4.09042 43.5889C4.20688 43.1777 4.10498 42.8214 3.77018 42.5336C3.56638 42.3554 3.33348 42.2321 3.10057 42.1361C2.75121 41.9854 2.38729 41.8346 2.03793 41.6838C1.73224 41.5468 1.44111 41.396 1.16453 41.2042C0.0291133 40.4229 0.0582266 39.0113 0.61138 38.2438C1.01897 37.6681 1.60123 37.3529 2.29995 37.2159C2.41641 37.1885 2.53286 37.1747 2.63476 37.1473C2.86766 37.1473 3.10057 37.1473 3.33348 37.1473Z" fill="black"/>
<path d="M48.9396 37.2844H50.8611L52.7098 42.5199L54.6167 37.2844H56.5236V45.4118H55.1262V39.6144L53.0155 45.4118H52.4477L50.3516 39.5869V45.4118H48.9396V37.2844Z" fill="black"/>
<path d="M72.3174 40.0255C72.3174 41.8209 72.3174 45.398 72.3174 45.398L70.92 45.4118C70.92 45.4118 70.8763 37.5174 70.9055 37.2844C71.3713 37.2844 71.8516 37.2844 72.3466 37.2844C72.856 38.1616 74.9376 41.6565 75.4471 42.5336C75.4617 42.5336 75.4762 42.5336 75.4762 42.5336C75.4762 42.5336 75.4908 42.5336 75.4908 42.5199C75.4908 40.7793 75.4908 37.3118 75.4908 37.3118H76.9319L76.9464 45.4118C76.9464 45.4118 76.0731 45.4118 75.7237 45.4255C75.6072 45.4255 75.549 45.3843 75.4908 45.2884C74.5009 43.6163 72.332 40.0255 72.3174 40.0255Z" fill="black"/>
<path d="M43.0586 42.1362L44.7326 45.4255C44.7326 45.4255 43.6699 45.4255 43.1168 45.4255C42.6364 44.425 41.6466 42.3691 41.6466 42.3691H40.5694V45.398L39.1574 45.4255L39.1428 37.2981C39.1428 37.2981 41.2244 37.2844 42.1852 37.2844C43.4516 37.2981 44.4414 38.1068 44.6161 39.2854C44.6889 39.7788 44.6744 40.2722 44.5142 40.7382C44.2813 41.3961 43.8446 41.8483 43.1459 42.0813C43.1168 42.1087 43.0586 42.1362 43.0586 42.1362ZM40.5694 41.1494C40.5694 41.1494 41.5301 41.1494 41.9377 41.1494C42.5054 41.1494 42.9276 40.8615 43.1022 40.3407C43.2041 40.0392 43.2187 39.7377 43.1459 39.4362C43.0003 38.792 42.5636 38.4631 41.8649 38.4631C41.501 38.4631 40.5839 38.4768 40.5839 38.4768V41.1494H40.5694Z" fill="black"/>
<path d="M15.7939 45.4254H14.3819L14.3674 41.862H11.1649V45.398L9.73834 45.4117V37.2981H11.1795L11.1649 40.6011L14.3674 40.6148V37.3118L15.7939 37.2981V45.4254Z" fill="black"/>
<path d="M28.5019 45.4118L31.0929 37.2844H32.8106L35.4017 45.4118H33.8442L33.3638 43.8219H30.5107C30.5107 43.8219 30.1904 44.8772 30.0303 45.4118C29.5354 45.4118 28.5019 45.4118 28.5019 45.4118ZM33.0872 42.6158L31.9372 38.792L30.8164 42.6158H33.0872Z" fill="black"/>
<path d="M67.179 45.4255C66.655 45.4255 66.1455 45.4255 65.6214 45.4255C65.4613 44.9047 65.3012 44.3701 65.1411 43.8356C64.1803 43.8356 62.288 43.8356 62.288 43.8356L61.8222 45.4255H60.2646L62.8557 37.2844H64.5734C64.5734 37.2844 66.3056 42.6981 67.179 45.4255ZM63.7 38.792C63.3215 40.0666 62.5791 42.6021 62.5791 42.6021H64.8645C64.8499 42.6158 63.7145 38.792 63.7 38.792Z" fill="black"/>
<path d="M25.0521 38.4631H21.7623L21.7478 40.6696H24.9648V41.862H21.7478V44.2468H25.0521V45.398L20.3212 45.4117V37.2981H25.0521V38.4631Z" fill="black"/>
<path d="M150.487 45.4254H149.06V37.2843C149.06 37.2843 149.963 37.2843 150.341 37.2706C150.472 37.2706 150.545 37.3117 150.618 37.4214C151.346 38.6549 153.325 41.999 153.587 42.4376C153.602 42.465 153.616 42.4924 153.646 42.5335C153.704 42.4787 153.675 42.4239 153.675 42.3691C153.675 41.6838 153.675 37.2843 153.675 37.2843H155.101C155.101 37.2843 155.145 45.165 155.116 45.4117C154.665 45.4117 154.199 45.4117 153.733 45.4117C153.194 44.5071 151.069 40.9163 150.516 40.0254C150.487 40.2858 150.487 45.4254 150.487 45.4254Z" fill="black"/>
<path d="M127.749 42.3691C127.385 42.3691 127.036 42.3691 126.657 42.3691C126.657 43.3833 126.657 44.3975 126.657 45.4117C126.177 45.4117 125.711 45.4117 125.245 45.4117C125.216 45.2883 125.202 37.4762 125.245 37.2843C125.289 37.2843 125.347 37.2706 125.391 37.2706C126.352 37.2706 127.298 37.2706 128.259 37.2706C129.583 37.2706 130.573 38.1204 130.733 39.3402C130.792 39.8198 130.777 40.2858 130.602 40.7518C130.369 41.396 129.933 41.8482 129.234 42.0812C129.205 42.0949 129.19 42.0949 129.147 42.1224C129.7 43.2188 130.253 44.3015 130.821 45.4117C130.268 45.4117 129.743 45.4117 129.205 45.4117C128.725 44.4112 128.244 43.397 127.749 42.3691ZM126.657 41.1493C126.73 41.1493 126.774 41.1493 126.832 41.1493C127.225 41.1493 127.618 41.1493 128.026 41.1493C128.608 41.1493 129.03 40.8478 129.205 40.3269C129.278 40.0802 129.292 39.8335 129.263 39.5731C129.176 38.929 128.754 38.4493 127.953 38.463C127.575 38.463 127.211 38.463 126.832 38.463C126.774 38.463 126.716 38.463 126.657 38.4767C126.657 39.3676 126.657 40.2447 126.657 41.1493Z" fill="black"/>
<path d="M120.908 40.6833C120.908 41.0945 120.908 41.4646 120.908 41.8757C119.83 41.8757 118.768 41.8757 117.691 41.8757C117.691 42.6706 117.691 43.4518 117.691 44.2468C118.782 44.2468 119.874 44.2468 120.98 44.2468C120.98 44.6442 120.98 45.028 120.98 45.4117C120.864 45.4528 116.672 45.4665 116.264 45.4254C116.235 45.3158 116.22 37.5448 116.25 37.2981C117.822 37.2981 119.394 37.2981 120.98 37.2981C120.98 37.6956 120.98 38.0793 120.98 38.4768C119.874 38.4768 118.782 38.4768 117.691 38.4768C117.691 39.2169 117.691 39.9295 117.691 40.6696C117.865 40.697 118.04 40.6833 118.215 40.6833C118.389 40.6833 118.564 40.6833 118.739 40.6833C118.913 40.6833 119.103 40.6833 119.277 40.6833C119.452 40.6833 119.641 40.6833 119.816 40.6833C119.991 40.6833 120.165 40.6833 120.34 40.6833C120.529 40.6833 120.704 40.6833 120.908 40.6833Z" fill="black"/>
<path d="M110.572 45.4254C110.092 45.4254 109.626 45.4254 109.175 45.4254C109.175 45.4117 109.16 45.4117 109.16 45.4117L109.146 45.398C109.146 45.3843 109.146 45.3706 109.146 45.3706C109.146 45.3569 109.146 45.3432 109.146 45.3158C109.146 43.0544 109.131 38.4905 109.131 38.4905L107.181 38.4768L107.166 37.2981C107.166 37.2981 110.762 37.2981 112.567 37.2981C112.567 37.6818 112.567 38.4768 112.567 38.4768H110.587C110.587 38.4631 110.572 45.0143 110.572 45.4254Z" fill="black"/>
<path d="M134.984 37.2844C135.464 37.2844 135.915 37.2844 136.396 37.2844C136.41 37.6682 136.396 44.2331 136.396 44.2331H139.424V45.398L134.984 45.4118C134.984 45.4118 134.984 39.9981 134.984 37.2844Z" fill="black"/>
<path d="M144.548 37.2981H143.121V45.4254H144.548V37.2981Z" fill="black"/>
</svg>
