<svg width="165" height="84" viewBox="0 0 165 84" fill="none" xmlns="http://www.w3.org/2000/svg">
<path d="M125.805 34.6191H114.99V32.6691H125.805V34.6191ZM125.805 31.1206V23.7728H124.106V29.2156H121.202V23.7766H119.503V29.2156H116.691V23.7728H114.992V31.1206H125.805ZM140.49 33.038L141.633 31.6744C142.669 32.5733 143.704 33.085 145.048 33.085C146.222 33.085 146.964 32.5426 146.964 31.7214V31.6907C146.964 30.9165 146.531 30.4977 144.522 30.032C142.22 29.4753 140.922 28.793 140.922 26.7941V26.7635C140.922 24.9035 142.468 23.6176 144.615 23.6176C146.192 23.6176 147.443 24.0986 148.54 24.9812L147.521 26.4223C146.547 25.6941 145.572 25.307 144.585 25.307C143.472 25.307 142.823 25.88 142.823 26.5929V26.6236C142.823 27.4611 143.317 27.8319 145.387 28.3273C147.675 28.885 148.864 29.7072 148.864 31.5039V31.5345C148.864 33.5641 147.273 34.7734 145.002 34.7734C143.348 34.7743 141.788 34.2013 140.49 33.038ZM128.373 34.6191H130.242V26.9034L136.206 34.6201H137.797V23.7728H135.928V31.2729L130.134 23.7728H128.373V34.6191ZM110.92 29.2271V29.1964C110.92 27.0893 109.39 25.3386 107.242 25.3386C105.095 25.3386 103.596 27.0586 103.596 29.1658V29.1964C103.596 31.3036 105.125 33.0543 107.273 33.0543C109.42 33.0543 110.92 31.3343 110.92 29.2271ZM101.602 29.2271V29.1964C101.602 26.1435 103.952 23.5869 107.273 23.5869C110.595 23.5869 112.912 26.1128 112.912 29.1648V29.1955C112.912 32.2484 110.564 34.805 107.242 34.805C103.92 34.805 101.602 32.28 101.602 29.2271ZM92.7328 29.1495V25.5082H95.4999C96.9055 25.5082 97.7396 26.1425 97.7396 27.3058V27.3365C97.7396 28.4356 96.8739 29.1485 95.5143 29.1485H92.7328V29.1495ZM90.8324 34.6191H92.7328V30.8389H95.112L97.7692 34.6201H100.01L97.0899 30.5131C98.6043 30.079 99.6697 29.0105 99.6697 27.2292V27.1966C99.6697 26.2518 99.3458 25.4469 98.7744 24.8566C98.0788 24.1753 97.0125 23.7719 95.6528 23.7719H90.8324V34.6191ZM78.8744 29.2271V29.1964C78.8744 26.1128 81.1752 23.5869 84.4525 23.5869C86.4447 23.5869 87.6506 24.2845 88.6854 25.2763L87.4652 26.6859C86.5995 25.88 85.6727 25.3386 84.4373 25.3386C82.3667 25.3386 80.8685 27.0433 80.8685 29.1658V29.1964C80.8685 31.3199 82.3667 33.0543 84.4373 33.0543C85.7654 33.0543 86.6158 32.5119 87.5426 31.6438L88.7628 32.8828C87.6362 34.0605 86.3989 34.804 84.3761 34.804C81.222 34.805 78.8744 32.3414 78.8744 29.2271ZM60.6083 34.6191H68.32V32.9154H62.5078V30.0014H68.3162V28.2976H62.5078V25.4775H68.2417V23.7728H60.6073V34.6191H60.6083ZM50.0988 23.7728H57.7332V25.4775H51.9993V28.2967H57.8068V30.0004H51.9993V32.9144H57.8106V34.6181H50.0998V23.7728H50.0988ZM40.7895 29.1495V25.5082H43.5566C44.9621 25.5082 45.7962 26.1425 45.7962 27.3058V27.3365C45.7962 28.4356 44.9306 29.1485 43.5709 29.1485H40.7895V29.1495ZM38.889 34.6191H40.7895V30.8389H43.1686L45.8259 34.6201H48.0665L45.1465 30.5131C46.661 30.079 47.7263 29.0105 47.7263 27.2292V27.1966C47.7263 26.2518 47.4024 25.4469 46.831 24.8566C46.1354 24.1753 45.0691 23.7719 43.7095 23.7719H38.889V34.6191ZM27.2368 23.7728H29.1373V28.2813H34.2979V23.7728H36.1983V34.6201H34.2979V30.0483H29.1373V34.6201H27.2368V23.7728ZM19.6301 34.6191H21.5449V25.5398H24.9751V23.7728H16.1999V25.5398H19.6301V34.6191ZM148.864 60.6247H16.1359V52.9952H148.864V60.6247Z" fill="#867150"/>
</svg>
