<svg width="108" height="39" viewBox="0 0 108 39" fill="none" xmlns="http://www.w3.org/2000/svg">
<g clip-path="url(#clip0_1_3939)">
<path d="M69.1892 15.0361C68.082 15.0361 67.1878 14.871 66.4639 14.4996C65.74 14.1694 65.1439 13.6742 64.6755 13.1377C64.2497 12.5599 63.9942 11.9409 63.8238 11.3218C63.7387 10.9916 63.6961 10.7027 63.6535 10.3313C63.6109 10.2075 63.6109 10.0424 63.6109 9.91861V3.68679C63.6109 3.15028 63.6961 2.73757 63.909 2.44868C64.1219 2.11852 64.3774 1.8709 64.6755 1.70582C65.0161 1.49946 65.3142 1.37565 65.6549 1.29311L66.2084 1.1693V9.83607C66.2084 10.0837 66.2084 10.3726 66.2936 10.6615C66.3788 10.9916 66.5491 11.3218 66.762 11.6107C67.0175 11.8996 67.3156 12.1472 67.6988 12.3536C68.1246 12.5599 68.593 12.6424 69.1892 12.6424C69.7853 12.6424 70.2537 12.5599 70.6369 12.3536C71.0202 12.1472 71.3608 11.8996 71.5737 11.6107C71.8292 11.3218 71.957 10.9916 72.0421 10.6615C72.0847 10.3726 72.1273 10.0837 72.1273 9.83607V3.60425C72.1273 3.06774 72.2125 2.65503 72.4254 2.36614C72.6383 2.03598 72.8938 1.78836 73.1918 1.62328C73.4899 1.41692 73.788 1.29311 74.1286 1.21057L74.6822 1.08676V9.91861C74.6822 10.3726 74.6396 10.8266 74.5119 11.2805C74.3841 11.8996 74.0861 12.4774 73.6602 13.0552C73.2344 13.6742 72.5957 14.1282 71.8718 14.4996C71.1053 14.871 70.2537 15.0361 69.1892 15.0361Z" fill="#3D8CBC"/>
<path d="M50.1125 10.3313V10.29L50.0273 9.87734V9.83607C50.0273 9.34082 50.1551 8.96939 50.3254 8.6805C50.5383 8.35034 50.7938 8.10271 51.0919 7.93763C51.4325 7.73128 51.7306 7.60747 52.0713 7.52493L52.6248 7.40112V9.83607C52.6248 10.0837 52.6248 10.3726 52.71 10.6615C52.7952 10.9916 52.9655 11.3218 53.1784 11.6107C53.4339 11.8996 53.732 12.1472 54.1152 12.3536C54.541 12.5599 55.0094 12.6424 55.6056 12.6424C56.2017 12.6424 56.6701 12.5599 57.0533 12.3536C57.4366 12.1472 57.7772 11.8996 57.9901 11.6107C58.2456 11.3218 58.3734 10.9916 58.4585 10.6615C58.5011 10.3726 58.5437 10.0837 58.5437 9.83607V3.68679C58.5437 3.15028 58.6289 2.73757 58.8418 2.44868C59.0547 2.11852 59.3102 1.8709 59.6082 1.70582C59.9063 1.49946 60.2044 1.37565 60.545 1.29311L61.0986 1.1693V9.95988C61.0986 10.4139 61.056 10.8678 60.9283 11.3218C60.8005 11.9409 60.5025 12.5599 60.0766 13.0964C59.6508 13.7155 59.0121 14.1695 58.2882 14.5409C57.5217 14.9123 56.6701 15.0774 55.6056 15.0774C54.4984 15.0774 53.6042 14.9123 52.8803 14.5409C52.1564 14.2107 51.5603 13.7155 51.1345 13.1377C50.7087 12.5599 50.4532 11.9409 50.2828 11.3218C50.1977 10.9916 50.1551 10.7027 50.1125 10.3313Z" fill="#3D8CBC"/>
<path d="M85.5831 8.55669C84.8167 7.85509 83.7521 7.31858 82.3895 6.98842C81.3675 6.74079 80.6011 6.41063 80.1753 6.08047C79.792 5.79158 79.5791 5.42014 79.5791 5.00744C79.5791 4.5122 79.7069 4.22331 80.1327 3.89314C80.5159 3.56298 81.2824 3.27409 82.3469 3.43917C83.0708 3.56298 84.1354 3.97568 84.987 5.25506L85.3276 5.79158L85.7109 5.17252C85.8812 4.92491 85.9664 4.59476 86.0515 4.2646C86.0941 3.93444 86.0941 3.60425 86.009 3.27409C85.9238 2.9852 85.7109 2.65503 85.3702 2.32487C84.476 1.49946 83.2837 1.08676 81.7934 1.08676C80.3882 1.08676 79.281 1.45819 78.3868 2.20106C77.4926 2.94393 77.0242 3.89314 77.0242 5.00744C77.0242 6.08047 77.45 6.90588 78.3017 7.60747C79.1107 8.30907 80.1752 8.80431 81.5804 9.13447C82.5172 9.38209 83.2411 9.71226 83.667 10.0837C84.0076 10.4139 84.1779 10.7853 84.1779 11.2393C84.1779 11.6932 84.0076 12.0234 83.5818 12.3123C83.156 12.6424 82.5598 12.7663 81.8359 12.7663C81.2398 12.7663 80.7288 12.6424 80.2178 12.3536C79.4939 11.9409 78.9404 11.3218 78.5146 10.4964L78.2591 9.91861L77.7907 10.4964C77.5778 10.744 77.45 10.9916 77.3223 11.3218C77.1945 11.6107 77.1945 11.9409 77.2371 12.3123C77.2797 12.6424 77.45 12.9726 77.7481 13.344C78.3442 14.0456 79.1107 14.5409 80.0901 14.8298C80.6862 14.9949 81.2398 15.0774 81.8359 15.0774C83.2837 15.0774 84.4334 14.7472 85.3276 14.0456C86.2644 13.344 86.7328 12.3948 86.7328 11.2393C86.7328 10.2075 86.3496 9.29955 85.5831 8.55669Z" fill="#3D8CBC"/>
<path d="M88.4787 21.6806C88.9045 22.2172 89.16 22.8362 89.3303 23.4553C89.452 23.8877 89.4964 24.3202 89.5372 24.717L89.5433 24.7759V33.5665L88.9897 33.4427C88.6916 33.3601 88.351 33.2363 88.0529 33.03C87.7548 32.8649 87.4993 32.6173 87.2864 32.2871C87.0735 31.9982 86.9883 31.5855 86.9883 31.049V25.0235C86.9883 24.7759 86.9883 24.487 86.9032 24.1981C86.818 23.868 86.6477 23.5378 86.4348 23.2489C86.2219 22.96 85.8812 22.7124 85.498 22.5061C85.1147 22.2997 84.6463 22.2172 84.0502 22.2172C83.4541 22.2172 82.9431 22.2997 82.5598 22.5061C82.1766 22.7124 81.8359 22.96 81.623 23.2489C81.3675 23.5378 81.2398 23.868 81.1546 24.1981C81.1121 24.487 81.0695 24.7759 81.0695 25.0235V33.5665L80.5159 33.4427C80.1753 33.3601 79.8346 33.2363 79.5365 33.03C79.2385 32.8649 78.983 32.6173 78.7701 32.2871C78.5572 31.9982 78.472 31.5855 78.472 31.049V24.8585C78.472 24.6934 78.472 24.5696 78.5146 24.4045C78.5571 24.0743 78.5997 23.7442 78.6849 23.4553C78.8126 22.7949 79.1107 22.1759 79.5365 21.6394C79.9624 21.0616 80.5585 20.6076 81.2824 20.2362C82.0489 19.8648 82.9005 19.6997 84.0076 19.6997C85.0722 19.6997 85.9664 19.8648 86.6903 20.2362C87.4142 20.6076 88.0103 21.1029 88.4787 21.6806Z" fill="#3D8CBC"/>
<path fill-rule="evenodd" clip-rule="evenodd" d="M100.444 21.2267C99.7203 20.7314 98.9538 20.36 98.1447 20.1949C97.5486 20.0711 96.9099 19.9886 96.3137 19.9886H92.013V33.484H96.2711C96.4415 33.484 96.6118 33.484 96.8247 33.4427C97.2931 33.4014 97.7189 33.3601 98.1022 33.2363C98.9112 33.0713 99.7203 32.6998 100.444 32.1633C101.211 31.6268 101.807 30.9252 102.275 30.0173C102.744 29.1093 102.999 28.0363 102.999 26.6744C102.999 25.3537 102.786 24.2807 102.318 23.3727C101.807 22.5061 101.211 21.7632 100.444 21.2267ZM94.653 22.4648H95.9731C96.3563 22.4648 96.7821 22.5061 97.2079 22.6299C97.7189 22.7537 98.1873 22.96 98.6557 23.2902C99.1241 23.6203 99.5074 24.0743 99.8054 24.6521C100.104 25.2299 100.231 25.8902 100.231 26.7156C100.231 27.541 100.104 28.2426 99.8054 28.7791C99.5074 29.3157 99.1241 29.7696 98.6557 30.0998C98.1873 30.43 97.7189 30.6363 97.2079 30.7601C96.7821 30.8427 96.3563 30.8839 95.9731 30.8839H94.653V22.4648Z" fill="#3D8CBC"/>
<path d="M106.448 20.0298C106.746 19.8235 107.044 19.6997 107.385 19.6171L107.981 19.4933V33.4014L107.428 33.2776C107.087 33.1951 106.746 33.0713 106.448 32.8649C106.15 32.6998 105.895 32.4522 105.682 32.122C105.469 31.8331 105.384 31.4204 105.384 30.8839V22.0108C105.384 21.4743 105.469 21.0616 105.682 20.7727C105.895 20.4425 106.15 20.1949 106.448 20.0298Z" fill="#3D8CBC"/>
<path d="M74.4693 20.2775C74.1712 20.4425 73.9157 20.6902 73.7028 21.0203C73.4899 21.3092 73.4047 21.7219 73.4047 22.2584V28.4077C73.4047 28.6553 73.3622 28.9442 73.3196 29.2331C73.2344 29.5633 73.1067 29.8934 72.8512 30.1823C72.5957 30.4712 72.2976 30.7601 71.9144 30.9252C71.5312 31.1315 71.0628 31.2141 70.4666 31.2141C69.8705 31.2141 69.4021 31.1315 68.9762 30.9252C68.593 30.7188 68.2949 30.4712 68.0394 30.1823C67.8265 29.8934 67.6562 29.5633 67.571 29.2331C67.4859 28.9442 67.4859 28.6553 67.4859 28.4077V19.7409L66.9323 19.8648C66.5917 19.9473 66.2936 20.0711 65.9529 20.2775C65.6549 20.4425 65.3994 20.6902 65.1865 21.0203C64.9736 21.3092 64.8884 21.7219 64.8884 22.2584V28.449C64.8884 28.5728 64.8884 28.7379 64.931 28.8617C64.9736 29.2331 65.0161 29.522 65.1013 29.8522C65.2716 30.4712 65.5271 31.0903 65.9529 31.6681C66.3788 32.2458 66.9749 32.7411 67.6988 33.0713C68.4227 33.4427 69.3169 33.6078 70.424 33.6078C71.4886 33.6078 72.3828 33.4427 73.1067 33.0713C73.8306 32.6998 74.4693 32.2458 74.8951 31.6268C75.3209 31.0903 75.619 30.4712 75.7467 29.8522C75.8745 29.3982 75.9171 28.9442 75.9171 28.4902V19.7409L75.3635 19.8648C75.0654 19.9473 74.7674 20.0711 74.4693 20.2775Z" fill="#3D8CBC"/>
<path d="M56.2443 23.8267L58.7992 20.7314C59.9489 19.3695 61.7373 19.7822 62.078 19.906L62.4186 20.0298V33.649L61.8651 33.5252C61.5244 33.4427 61.1838 33.3189 60.8857 33.1125C60.5876 32.9062 60.3321 32.6585 60.1192 32.3284C59.9063 32.0395 59.8211 31.6268 59.8211 31.0903V23.4965L56.2443 27.8712L52.6674 23.4965V31.0903C52.6674 31.6268 52.5822 32.0395 52.3693 32.3284C52.1564 32.6585 51.9009 32.9062 51.6028 33.0713C51.3048 33.2776 51.0067 33.4014 50.6661 33.484L50.1125 33.6078V19.9886L50.4106 19.8648L50.4228 19.8618C50.792 19.7721 52.5528 19.3443 53.6894 20.7314L56.2443 23.8267Z" fill="#3D8CBC"/>
<path d="M12.7768 5.95937C11.1961 5.81588 9.5856 5.85893 8.01985 6.1172C7.52776 6.20328 7.02076 6.30372 6.52866 6.41851C5.38045 6.70547 4.24714 7.09287 3.17349 7.59506C3.12813 7.61607 3.05573 7.64837 2.96294 7.68976C2.23194 8.01582 0.23584 8.90618 0.23584 9.28814V0.220093H23.0361C27.5992 4.63933 29.1053 11.2969 26.9431 17.1223C26.6001 10.4503 18.9503 6.53329 12.7768 5.95937Z" fill="#3D8CBC"/>
<path d="M29.493 12.4304C29.5676 11.1821 29.4781 9.93381 29.2693 8.69987C29.1202 7.81028 28.8965 6.94939 28.5983 6.0885C28.2255 4.99804 27.7334 3.95062 27.1518 2.94625C27.1211 2.89459 27.074 2.81139 27.014 2.7056C26.6073 1.98864 25.6123 0.234442 25.1835 0.234442H34.7271V18.7723C34.7271 20.7667 34.2797 22.7754 33.3999 24.7411C30.5368 26.7642 27.122 27.826 23.5282 27.826C21.545 27.826 19.6362 27.5103 17.817 26.879C18.7266 27.1947 20.6204 26.3912 21.4257 26.0181C22.5142 25.5159 23.4835 24.8129 24.3335 23.9807C27.4202 20.9102 29.2693 16.7062 29.493 12.4304Z" fill="#3D8CBC"/>
<path d="M7.69179 18.0549C8.13915 27.0799 20.6055 30.6669 28.2553 28.7443L28.3299 28.7299C29.5526 28.4143 30.7605 27.9695 31.9087 27.3956C30.6114 29.3469 28.8667 31.2265 26.7343 32.977C23.0958 35.9758 19.3976 37.7119 19.3529 37.7262L17.474 38.6015L15.5951 37.7262C15.5802 37.7262 14.939 37.4249 13.9399 36.8654C13.1048 36.3058 12.3145 35.6745 11.6136 35.0001C8.43739 31.9439 6.69269 27.8834 6.69269 23.5646C6.69269 21.6563 7.03567 19.8054 7.69179 18.0549Z" fill="#3D8CBC"/>
<path d="M5.18659 24.8416C4.78397 17.8827 8.84001 8.72857 16.8328 8.34116C15.0135 7.70984 13.1048 7.39418 11.1364 7.39418C7.14005 7.39418 3.26296 8.77161 0.23584 11.2682V18.7866C0.23584 23.5933 2.78578 28.3282 7.63214 32.4892C6.51375 30.6382 5.75324 28.6438 5.38045 26.5203C5.29098 25.9751 5.23133 25.4155 5.18659 24.8416Z" fill="#3D8CBC"/>
</g>
<defs>
<clipPath id="clip0_1_3939">
<rect width="107.647" height="38.7528" fill="white" transform="translate(0.23584 0.220093)"/>
</clipPath>
</defs>
</svg>
