<svg width="325" height="166" viewBox="0 0 325 166" fill="none" xmlns="http://www.w3.org/2000/svg">
<path fill-rule="evenodd" clip-rule="evenodd" d="M180.954 107.787C178.879 111.577 176.346 115.072 173.43 118.194C177.6 128.048 183.461 137.035 190.704 144.742C176.201 157.703 159.205 165.434 133.485 165.434C86.6907 165.434 51.9064 129.167 51.9064 83.3488V82.894C51.9064 37.531 86.0108 0.353776 134.845 0.353776C161.018 0.353776 178.014 7.97113 191.723 19.6814C183.996 27.544 177.733 36.8751 173.435 47.3724C176.386 50.5328 178.945 54.0754 181.034 57.9201C190.991 24.5889 220.865 0.240112 260.385 0.240112C290.411 0.240112 308.313 10.245 323.042 24.7976L300.835 50.6056C288.598 39.4638 276.021 32.6423 260.159 32.6423C233.419 32.6423 214.044 54.9259 214.044 82.3256V82.7804C214.044 110.066 232.852 132.918 260.159 132.918C278.287 132.918 289.504 125.642 301.968 114.273L324.175 136.784C307.859 154.293 289.618 165.321 259.026 165.321C220.991 165.321 190.891 141.36 180.954 107.787ZM177.447 83.4687H165.439C165.331 94.2793 162.663 104.378 158.131 112.858C161.893 115.037 165.29 117.781 168.206 120.974C173.19 116.726 177.327 111.485 180.325 105.548C178.462 98.5411 177.467 91.1395 177.447 83.4687ZM180.399 60.1591C177.831 55.0334 174.417 50.423 170.342 46.5175C169.587 45.9062 168.829 45.3124 168.068 44.7366C165.192 47.8559 161.854 50.5413 158.166 52.6825C162.646 61.0938 165.294 71.1151 165.437 81.8647H177.451C177.528 74.3545 178.539 67.0751 180.399 60.1591ZM165.153 42.6301C158.808 38.2655 152.199 35.1751 144.924 33.6741C143.231 33.3866 141.509 33.1871 139.761 33.0805C143.996 35.5007 147.862 38.7202 151.236 42.5793L165.153 42.6301ZM92.7273 61.0087C90.0504 67.3411 88.5642 74.4091 88.5053 81.8647H108.445C108.588 71.0522 111.266 60.9765 115.794 52.535C112.016 50.3105 108.613 47.5162 105.705 44.2744C100.277 48.8099 95.8287 54.5126 92.7273 61.0087ZM88.5076 83.4687C88.6034 91.6686 90.4094 99.4518 93.6342 106.314C96.6769 112.071 100.8 117.147 105.726 121.264C108.637 118.022 112.046 115.228 115.829 113.005C111.249 104.495 108.552 94.3419 108.442 83.4687H88.5076ZM157.664 127.836C160.025 126.674 162.296 125.33 164.525 123.822C164.941 123.531 165.353 123.233 165.76 122.928L151.171 122.982C147.804 126.829 143.95 130.048 139.73 132.482C146.119 132.096 152.173 130.47 157.664 127.836ZM137.797 33.8302C141.924 36.004 145.724 38.9678 149.071 42.5714L137.797 42.5303V33.8302ZM150.5 44.1806L137.797 44.1342V56.7331C144.355 56.6235 150.539 54.9451 155.994 52.0553C154.371 49.2091 152.529 46.5716 150.5 44.1806ZM156.767 53.4592C151.084 56.4758 144.635 58.2273 137.797 58.3373V81.8647H163.838C163.696 71.3616 161.11 61.6164 156.767 53.4592ZM136.085 58.3304V81.8647H110.043C110.187 71.302 112.801 61.5058 117.188 53.3205C122.844 56.3685 129.27 58.166 136.085 58.3304ZM134.187 132.503C124.488 131.988 115.523 128.594 108.114 123.139L122.801 123.085C126.156 126.898 129.991 130.089 134.187 132.503ZM136.085 131.722C132.017 129.552 128.268 126.623 124.957 123.077L136.085 123.037V131.722ZM123.529 121.479L136.085 121.433V108.835C129.568 108.998 123.42 110.714 118.003 113.622C119.637 116.46 121.489 119.091 123.529 121.479ZM136.085 83.4687V107.23C129.284 107.394 122.871 109.185 117.224 112.221C112.784 103.966 110.15 94.0915 110.041 83.4687H136.085ZM121.451 121.486C119.681 119.299 118.06 116.93 116.609 114.406C113.294 116.357 110.279 118.763 107.652 121.537L121.451 121.486ZM116.572 51.1332C113.272 49.1865 110.27 46.7876 107.652 44.0243L121.389 44.0744C119.628 46.2536 118.016 48.615 116.572 51.1332ZM117.966 51.9189C119.592 49.0857 121.435 46.4609 123.465 44.082L136.085 44.128V56.726C129.553 56.5622 123.392 54.8388 117.966 51.9189ZM124.892 42.4832L136.085 42.524V33.8302C131.991 35.9863 128.219 38.9194 124.892 42.4832ZM108.066 42.4218L122.737 42.4753C126.099 38.6509 129.946 35.4599 134.158 33.0589C124.43 33.5768 115.465 36.9707 108.066 42.4218ZM137.797 83.4687V107.224C144.621 107.333 151.057 109.078 156.732 112.083C161.127 103.856 163.732 94.0322 163.841 83.4687H137.797ZM155.956 113.486C150.511 110.608 144.34 108.937 137.797 108.828V121.427L150.436 121.38C152.475 118.981 154.326 116.337 155.956 113.486ZM149.006 122.99L137.797 123.031V131.722C141.898 129.534 145.675 126.574 149.006 122.99ZM152.522 121.373C154.29 119.175 155.908 116.796 157.356 114.261C160.674 116.186 163.697 118.568 166.339 121.322L152.522 121.373ZM152.584 44.1882C154.343 46.3778 155.953 48.7497 157.392 51.2785C160.696 49.3576 163.707 46.9824 166.339 44.2384L152.584 44.1882Z" fill="#005AA0"/>
<path d="M0.239746 3.08241H35.2506V162.592H0.239746V3.08241Z" fill="#005AA0"/>
</svg>
