<svg width="28" height="20" viewBox="0 0 28 20" fill="none" xmlns="http://www.w3.org/2000/svg">
<path d="M22.464 0.800001C24.384 0.800001 25.792 1.22667 26.688 2.08C27.5413 2.976 27.968 4.08533 27.968 5.408L27.968 6.752C27.968 7.98934 27.7973 9.22667 27.456 10.464C27.072 11.744 26.5813 12.96 25.984 14.112C25.344 15.264 24.5973 16.3307 23.744 17.312C22.8907 18.336 21.9733 19.232 20.992 20L15.04 20C16.448 18.72 17.664 17.4187 18.688 16.096C19.6693 14.7733 20.416 13.3013 20.928 11.68C19.5627 11.424 18.56 10.848 17.92 9.952C17.28 9.09867 16.96 8.11733 16.96 7.008L16.96 5.408C16.96 4.08533 17.408 2.976 18.304 2.08C19.1573 1.22667 20.544 0.8 22.464 0.800001ZM7.42399 0.799999C9.34399 0.8 10.752 1.22667 11.648 2.08C12.5013 2.976 12.928 4.08533 12.928 5.408L12.928 6.752C12.928 7.98933 12.7573 9.22667 12.416 10.464C12.032 11.744 11.5413 12.96 10.944 14.112C10.304 15.264 9.55732 16.3307 8.70399 17.312C7.85065 18.336 6.93332 19.232 5.95199 20L-1.33514e-05 20C1.40799 18.72 2.62399 17.4187 3.64799 16.096C4.62932 14.7733 5.37599 13.3013 5.88799 11.68C4.52265 11.424 3.51999 10.848 2.87999 9.952C2.23999 9.09866 1.91999 8.11733 1.91999 7.008L1.91999 5.408C1.91999 4.08533 2.36799 2.976 3.26399 2.08C4.11732 1.22667 5.50399 0.799999 7.42399 0.799999Z" fill="#009EFE"/>
</svg>
