<svg width="28" height="20" viewBox="0 0 28 20" fill="none" xmlns="http://www.w3.org/2000/svg">
<path d="M5.53598 19.2C3.61598 19.2 2.20798 18.7733 1.31198 17.92C0.458649 17.024 0.0319824 15.9147 0.0319824 14.592V13.248C0.0319824 12.0107 0.202649 10.7733 0.543982 9.536C0.927982 8.256 1.41865 7.04 2.01598 5.888C2.65598 4.736 3.40265 3.66933 4.25598 2.688C5.10932 1.664 6.02665 0.767998 7.00798 0H12.96C11.552 1.28 10.336 2.58133 9.31198 3.904C8.33065 5.22667 7.58398 6.69867 7.07198 8.32C8.43732 8.576 9.43998 9.152 10.08 10.048C10.72 10.9013 11.04 11.8827 11.04 12.992V14.592C11.04 15.9147 10.592 17.024 9.69598 17.92C8.84265 18.7733 7.45598 19.2 5.53598 19.2ZM20.576 19.2C18.656 19.2 17.248 18.7733 16.352 17.92C15.4986 17.024 15.072 15.9147 15.072 14.592V13.248C15.072 12.0107 15.2427 10.7733 15.584 9.536C15.968 8.256 16.4586 7.04 17.056 5.888C17.696 4.736 18.4426 3.66933 19.296 2.688C20.1493 1.664 21.0667 0.767998 22.048 0H28C26.592 1.28 25.376 2.58133 24.352 3.904C23.3707 5.22667 22.624 6.69867 22.112 8.32C23.4773 8.576 24.48 9.152 25.12 10.048C25.76 10.9013 26.08 11.8827 26.08 12.992V14.592C26.08 15.9147 25.632 17.024 24.736 17.92C23.8827 18.7733 22.496 19.2 20.576 19.2Z" fill="#009EFE"/>
</svg>
