<svg width="49" height="48" viewBox="0 0 49 48" fill="none" xmlns="http://www.w3.org/2000/svg">
<g clip-path="url(#clip0_1019_1136)">
<rect width="48" height="48" transform="translate(0.333374)" fill="white"/>
<path fill-rule="evenodd" clip-rule="evenodd" d="M35.7084 6.01851C36.2449 6.35893 36.7678 6.72415 37.2751 7.11358C39.3094 8.67522 41.0321 10.5783 42.3762 12.7222L39.9606 14.1168C39.6075 14.3207 39.4973 14.7771 39.7033 15.1291C39.9075 15.4781 40.3548 15.6084 40.7051 15.4062L43.1227 14.0103C43.9011 15.468 44.5127 17.0197 44.9391 18.6375C45.3411 20.1629 45.5708 21.7185 45.6302 23.276H42.9229C42.4782 23.276 42.1251 23.6472 42.1251 24.0918C42.1251 24.4595 42.4181 24.7648 42.7857 24.7648H45.6352C45.5527 27.3885 44.9877 29.9924 43.95 32.4418C43.7157 32.9947 43.459 33.5359 43.181 34.064L40.7672 32.6704C40.4153 32.4672 39.9657 32.5998 39.7629 32.9519C39.5603 33.3036 39.6713 33.7568 40.0228 33.9597L42.442 35.3565C40.5452 38.4212 37.8948 40.9733 34.7213 42.7553C34.0712 43.1204 33.8401 43.9433 34.2051 44.5934C34.5702 45.2435 35.3931 45.4746 36.0432 45.1095C40.6981 42.4957 44.3535 38.4106 46.4361 33.4951C48.5186 28.5795 48.9104 23.1117 47.5499 17.9494C46.1895 12.7872 43.1538 8.22261 38.9192 4.97186C34.6845 1.72112 29.4905 -0.0318554 24.152 -0.0120409C18.8136 0.00777359 13.6327 1.79926 9.4223 5.08135C5.21189 8.36343 2.21017 12.9504 0.888085 18.1226C-0.434002 23.2948 -0.00164714 28.7596 2.11732 33.6595C4.23628 38.5595 7.92195 42.6174 12.5961 45.1966C13.2489 45.5568 14.0701 45.3196 14.4303 44.6668C14.7905 44.014 14.5533 43.1928 13.9005 42.8326C10.6831 41.0572 7.99317 38.4929 6.0698 35.4028L8.65153 33.9123C9.00222 33.7098 9.11368 33.2579 8.91258 32.9064C8.71031 32.553 8.25978 32.4193 7.90708 32.6229L5.32749 34.1123C5.06428 33.6154 4.82 33.107 4.59552 32.5879C3.51833 30.0969 2.93198 27.4416 2.84779 24.7648H5.91582C6.28345 24.7648 6.57643 24.4595 6.57643 24.0918C6.57643 23.6472 6.22333 23.276 5.77867 23.276H2.85276C2.91017 21.7711 3.12657 20.2677 3.50398 18.7913C3.93615 17.1005 4.57045 15.4802 5.38601 13.9622L7.96893 15.4534C8.31993 15.6561 8.76824 15.5248 8.97188 15.1744C9.17632 14.8226 9.06577 14.3675 8.71338 14.1641L6.13582 12.6759C7.4474 10.5958 9.11647 8.74316 11.0822 7.2108C11.6903 6.73679 12.3212 6.29779 12.9718 5.89487L14.4429 8.44291C14.6462 8.79499 15.1006 8.90571 15.4524 8.70189C15.8034 8.4985 15.9351 8.04978 15.7322 7.69847L14.264 5.15547C17.1217 3.64986 20.2961 2.80383 23.5517 2.69891V5.53579C23.5517 5.97142 23.9151 6.31748 24.3508 6.31748C24.7275 6.31748 25.0405 6.0174 25.0405 5.6407V2.7027C28.3346 2.82571 31.5443 3.70747 34.4243 5.26508L33.0068 7.72023C32.8043 8.07095 32.9352 8.51889 33.2851 8.72275C33.637 8.92774 34.0925 8.81734 34.2961 8.46467L35.7084 6.01851Z" fill="#3D8CBC"/>
<path fill-rule="evenodd" clip-rule="evenodd" d="M35.9338 17.3017C35.4907 16.5341 34.5092 16.2711 33.7417 16.7143L25.6876 21.3643C25.2562 21.1352 24.764 21.0053 24.2414 21.0053C22.5364 21.0053 21.1543 22.3875 21.1543 24.0924C21.1543 25.7974 22.5364 27.1796 24.2414 27.1796C25.9362 27.1796 27.312 25.8139 27.3284 24.1231L35.3465 19.4939C36.114 19.0507 36.377 18.0692 35.9338 17.3017Z" fill="#6AD300"/>
</g>
<defs>
<clipPath id="clip0_1019_1136">
<rect width="48" height="48" fill="white" transform="translate(0.333374)"/>
</clipPath>
</defs>
</svg>
