<svg width="49" height="48" viewBox="0 0 49 48" fill="none" xmlns="http://www.w3.org/2000/svg">
<rect width="48" height="48" transform="translate(0.666687)" fill="white"/>
<path d="M20.8098 23.1433L44.6323 36.8972L28.5234 46.1977L4.70099 32.4438L20.8098 23.1433Z" fill="white" stroke="#3D8CBC" stroke-width="2.3" stroke-linejoin="round"/>
<path d="M20.8098 17.3953L44.6323 31.1492L28.5234 40.4496L4.70099 26.6957L20.8098 17.3953Z" fill="white" stroke="#3D8CBC" stroke-width="2.3" stroke-linejoin="round"/>
<path d="M20.8098 11.616L44.6323 25.3699L28.5234 34.6703L4.70099 20.9164L20.8098 11.616Z" fill="white" stroke="#3D8CBC" stroke-width="2.3" stroke-linejoin="round"/>
<path d="M25.5572 1.85059C25.5572 1.85059 29.0397 9.227 32.721 12.7448C36.6044 16.4556 44.6323 19.6217 44.6323 19.6217L28.5234 28.9222C28.5234 28.9222 20.4955 25.756 16.6122 22.0452C12.9309 18.5274 9.44833 11.151 9.44833 11.151L25.5572 1.85059Z" fill="white" stroke="#6AD300" stroke-width="2.3" stroke-linejoin="round"/>
<circle cx="31.1546" cy="10.2914" r="7.26263" fill="#6AD300"/>
<path fill-rule="evenodd" clip-rule="evenodd" d="M32.176 6.26953H30.2785V9.38281H27.1655V11.2803H30.2785V14.3932H32.176V11.2803H35.2891V9.38281H32.176V6.26953Z" fill="white"/>
</svg>
