<svg xmlns="http://www.w3.org/2000/svg" width="24" height="24" viewBox="0 0 24 24">
  <path d="M12 12C12 11.3373 12.5373 10.8 13.2 10.8C13.8627 10.8 14.4 11.3373 14.4 12C14.4 12.6628 13.8627 13.2001 13.2 13.2001C12.5373 13.2001 12 12.6628 12 12Z" fill="currentColor"/>
  <path d="M11.1516 7.74161C10.6829 7.27298 9.92313 7.27298 9.4545 7.74161C8.98587 8.21024 8.98587 8.97004 9.4545 9.43866L12.0079 11.9921L9.4545 14.5455C8.98588 15.0142 8.98588 15.774 9.4545 16.2426C9.92313 16.7112 10.6829 16.7112 11.1516 16.2426L14.5457 12.8485C14.7821 12.6121 14.8993 12.3015 14.8971 11.9916C14.899 11.682 14.7819 11.3719 14.5457 11.1357L11.1516 7.74161Z" fill="currentColor"/>
</svg>